ply
format ascii 1.0
comment Generated by PyMesh
element vertex 356
property float x
property float y
property float z
property float charge
property float hbond
property float hphob
property float nx
property float ny
property float nz
property float si
element face 614
property list uchar int vertex_indices
end_header
-0.4005 -3.211 36.864 0.077192 -0.60733 1.8 -0.434406 -0.884836 -0.168395 0.99991
1.93675 3.03975 41.703 -0.552695 -0.0909481 -0.4 -0.18204 -0.595591 0.782389 -0.269189
9.0075 -1.05125 46.258 0.570885 0.454301 -4.5 -0.210777 0.42186 0.88182 0.999879
16.6415 21.5215 29.1577 0.0491252 0 2.8 0.545505 0.832423 -0.0974517 -0.999894
-1.95075 -2.8835 36.6845 -1.01542 0 1.8 -0.255724 -0.966726 -0.00686895 -0.999892
12.273 11.0372 48.753 -1.51753 -0.0890397 -3.2 -0.0767255 -0.106836 -0.991312 -0.999916
8.7615 19.7116 37.6189 -1.35161 0 4.5 -0.106516 -0.848164 0.518914 0.268625
-2.189 15.679 35.251 -0.251406 0 -3.5 -0.914226 0.0974215 -0.39332 -0.0973359
13.7952 24.3775 37.7246 -0.544664 0 -3.5 0.822026 -0.569095 0.0200894 0.999864
8.7295 16.297 32.507 -1.45521 0 4.5 0.782623 0.0888764 0.616119 0.297394
5.73763 15.5934 40.9455 -0.726812 0 3.8 0.593614 -0.683348 0.425038 -0.563614
-2.785 -3.8165 41.44 -0.709065 -0.544299 -3.2 -0.706365 0.699643 0.107464 -0.407963
11.4412 0.92525 45.0882 0.3241 0 -4.5 0.211321 0.826764 0.521349 -0.999887
5.01862 9.11925 46.5825 -0.0993929 0 3.8 0.249028 -0.612915 -0.749881 -0.43002
5.6755 10.7762 51.941 0.109624 0 1.8 0.25822 -0.71545 0.649194 0.999904
8.1865 5.28275 51.9255 0.210107 0 -3.2 -0.414541 -0.0486817 -0.908728 0.999885
3.82675 -5.322 44.341 0.288374 0 -3.2 -0.57236 -0.00452426 0.81999 0.999884
14.3643 21.1562 33.7043 -1.00343 0 3.28706 0.374819 -0.226949 0.898891 0.673194
14.4888 22.7297 30.9814 0.0611374 0 3.66858 0.577948 0.713148 -0.396732 0.702204
9.43375 6.09975 51.252 4.89272 -0.794641 -3.2 -0.322449 -0.418481 -0.849059 0.999874
13.2045 10.126 44.466 -0.430055 0 2.34287 -0.263832 -0.421194 0.867749 -0.999821
16.068 18.726 33.976 -1.16169 0 2.8 0.302193 0.471402 0.828529 0.0738933
12.1391 15.5949 46.9215 -0.860235 -0.267921 -0.00291028 0.164277 -0.98577 0.0356577 0.999846
-1.37575 6.6935 42.4961 -0.155983 -0.0608578 -0.8 0.0856267 -0.0139477 0.99623 -0.425812
13.8638 5.31325 42.4162 0.316443 0 -4.5 -0.530594 -0.177384 0.828857 0.999862
10.1987 0.1095 46.245 0.830558 0.19973 -4.5 -0.133663 0.492469 0.860005 -0.999881
10.5815 7.98263 41.8106 -1.04607 0 -4.5 0.0969657 -0.491591 0.865411 0.633166
-3.624 2.95125 38.3134 0.735986 0 2.5 -0.606452 -0.0438948 0.793907 0.432542
-1.219 4.423 42.6087 -1.82275 -0.0473378 -0.8 0.0688556 -0.22184 0.972649 -0.817892
1.56925 9.30275 45.5073 -0.176871 0 3.8 0.0471484 -0.730097 -0.681715 -0.325587
9.71125 12.5714 46.3117 -0.442909 0 4.15626 0.848707 -0.23309 0.474726 0.534016
5.795 -3.3805 46.9325 -0.77201 0 -3.2 -0.334759 -0.18509 0.923947 -0.999854
9.51737 13.533 47.6835 -0.497708 0 4.2 0.881523 -0.472138 -0.0016454 0.999825
13.1775 20.5925 41.6577 -2.64186 -0.0126983 -3.5 0.979994 0.0504895 0.192517 -0.338655
-5.278 0.6375 35.4265 0.605797 0.0748296 -0.4 -0.900614 -0.0200258 0.434159 0.999889
-5.61825 6.63175 51.7692 -0.0716839 0 -4.5 0.239109 -0.957056 -0.163922 -0.999877
15.7773 24.294 32.754 -0.116644 0 4.5 0.862704 0.0950392 -0.496699 -0.999918
9.27512 14.8021 36.6613 -1.04957 0 -0.84714 -0.00124389 0.998378 0.056924 -0.232209
14.248 16.745 45.4575 -0.759057 0 2.8 0.392303 0.86962 -0.299765 0.99987
8.67138 5.30125 43.4958 -1.17678 0 -3.5 0.197024 0.484526 0.852301 -0.458439
19.417 18.8325 39.056 -0.847598 0 -3.5 0.171005 0.983561 0.0580074 -0.999873
3.07125 3.73875 42.8828 -0.11544 0 -0.4 -0.190336 -0.423174 0.885831 -0.731634
11.3333 10.1388 44.2682 -0.630666 0 2.8 0.252205 -0.607531 0.753192 -0.169166
13.8968 11.491 44.6982 -0.261125 0 2.8 0.0496984 -0.0859042 0.995063 -0.999811
4.02625 -4.08262 40.0284 0.0512392 -0.81438 2.8 -0.955216 -0.27993 0.0959238 0.999888
-6.86462 8.48575 48.8387 1.0867 0.719713 -4.5 -0.288674 -0.676361 -0.677645 -0.999892
1.54537 9.12938 40.8021 -0.488035 -0.0862391 1.9 0.546259 0.24664 0.800481 0.999712
17.4309 18.1606 36.5514 -1.98789 0 -3.5 -0.446205 0.882329 -0.149654 -0.442454
12.513 22.8993 45.2723 -0.619102 0 2.8 0.886376 -0.444343 0.129987 -0.999879
16.912 17.7598 38.2886 -3.12492 -0.112716 -3.5 -0.631148 0.771811 -0.0772028 -0.210066
6.786 16.2526 40.0218 -0.972508 0 3.8 0.933191 -0.358916 -0.0182601 -0.607323
3.48513 3.05 41.5661 -0.324253 -0.474438 -0.4 -0.0616055 -0.803056 0.59271 0.834126
10.6567 7.421 50.8792 0.333541 -0.19154 -3.2 0.24983 -0.627554 -0.737402 0.999882
13.7282 17.6199 44.165 -0.618909 0.629429 -3.9 0.801315 0.595139 0.0608606 0.373499
-2.32013 14.1748 35.3716 -0.441213 0 -3.5 -0.961077 -0.168937 -0.218613 -0.405033
11.2409 21.3891 48.4965 -0.732165 -0.67129 0.619933 0.88314 0.160816 -0.440683 0.999919
6.87275 10.4178 46.4939 -0.148791 0 3.38244 -0.121494 -0.89415 -0.430969 0.599039
2.14325 10.4795 40.2351 -0.159022 0 1.9 0.481211 0.30722 0.821006 0.204269
3.6 -2.3975 45.88 -0.176012 0 -3.2 -0.739891 -0.285349 0.609211 -0.999744
14.4355 15.5085 34.6222 -2.10513 0 -3.28217 -0.676521 0.724195 0.133644 0.999859
5.4655 9.09387 41.682 -0.268582 0 3.8 -0.574825 0.148142 0.804755 -0.253273
4.832 -4.51713 45.6406 -0.107712 0 -3.2 -0.71213 -0.340813 0.613773 0.999859
11.8158 9.221 50.11 -0.0301868 -0.0624449 -3.2 0.32963 -0.500741 -0.800376 0.999885
14.1182 6.84225 43.2352 -0.123509 0 -3.1407 -0.697305 -0.405698 0.59091 0.999841
-0.560625 0.973625 40.0899 -0.0355225 0 1.8 -0.0748366 -0.196471 0.977649 0.0812996
-1.49325 18.2708 34.8515 0.108933 0 4.2 -0.752547 0.210115 -0.624119 0.999941
10.6125 18.218 40.728 -1.5955 0.283696 -3.81211 -0.846563 -0.342325 -0.407608 0.270353
7.57575 -2.40325 46.8893 -0.387508 -0.83758 -3.2 0.129902 0.345621 0.929339 0.999878
13.8994 8.381 44.7692 -1.55008 0 1.9 -0.791004 -0.369306 0.487776 -0.999894
-1.93975 13.335 33.3312 -1.4263 -0.405566 -3.5 -0.9526 -0.30048 -0.0475906 -0.999872
9.8555 4.4275 43.1305 -1.08973 -0.0244079 -3.5 0.6149 0.344765 0.70925 -0.38549
18.0661 18.8054 37.9244 -4.24029 -0.730255 -3.5 -0.403681 0.911171 -0.08251 -0.999816
14.0961 24.1149 31.5338 0.126228 0 4.5 0.655334 0.348005 -0.670396 0.999916
15.1643 25.0476 36.9429 -0.492683 0 2.64459 0.547769 -0.782815 0.295211 0.999905
12.4443 19.1693 46.9619 -0.254329 0 -0.4 0.484965 0.823236 -0.295113 0.392291
8.32819 17.6914 33.2983 -1.48791 0 4.39041 0.759286 -0.477288 0.442358 0.558671
-1.22275 -4.94737 39.34 0.19955 0 -3.2 -0.61121 -0.18852 -0.768689 0.999877
-0.2585 8.40969 50.6096 0.298093 0 -4.5 0.164818 -0.986295 0.00762906 -0.0277168
15.5553 22.6216 34.024 -0.63753 0 4.5 0.625526 -0.279013 0.728607 -0.307392
11.9239 21.9229 43.4221 -1.05584 0 2.8 0.968113 -0.0807877 0.237131 0.892041
16.5506 16.7656 36.4357 -1.93175 0 -3.5 -0.589401 0.801197 0.103388 0.73717
11.6807 19.1052 36.532 -1.4803 0 4.5 0.538444 -0.820862 -0.190427 -0.502133
12.7425 22.8075 35.8375 -0.89135 0 4.47095 0.806455 -0.579244 0.118773 0.99984
17.6455 18.6822 42.5556 -1.15446 0 -1.74086 -0.846667 0.228614 -0.480511 -0.999958
7.19938 10.9574 52.11 -0.190294 0 1.8 -0.335328 -0.599043 0.727119 0.999913
15.8076 16.5155 38.894 -2.35668 0 -3.5 -0.592933 0.804662 -0.0307997 0.451489
6.72725 18.1053 39.0898 -1.22492 0 3.8 0.995057 -0.0969627 -0.021443 0.06461
-1.4385 12.7746 35.6978 -0.642079 -0.572014 -3.5 -0.899317 -0.319225 -0.298872 0.670172
10.9864 20.2081 47.5555 -0.879678 -0.0573215 -0.61822 0.86224 0.491447 -0.122563 0.999864
2.03825 14.0596 40.7526 -0.682785 0 1.8 0.744116 -0.619382 -0.250315 0.708424
19.8215 18.9263 32.155 -0.274692 0.0574878 0.372939 0.0983859 0.962818 0.251599 0.99989
6.96362 9.23025 47.5026 -0.421328 -0.212217 3.25117 0.168788 -0.580037 -0.796911 0.604267
5.0015 15.512 42.9113 -0.618912 0 3.79262 0.715673 -0.621988 -0.317715 0.0489371
-3.78875 9.53725 45.0117 -0.482317 0 3.58985 -0.162167 -0.974958 -0.152183 -0.0676873
-4.81606 10.1004 40.9302 0.224051 0 0.993802 -0.760324 -0.034451 -0.64863 0.560898
10.1512 13.8673 39.7603 -0.331543 0.0519222 -3.5 -0.924387 0.218369 0.312769 0.139085
6.65294 10.7076 41.9161 -0.403588 0 2.8 -0.8411 0.510661 0.178259 0.0521813
11.7463 13.0014 49.7231 -0.633986 0 -3.31668 0.071463 0.119299 -0.990283 0.999879
-3.49725 7.09438 42.1806 -0.976933 -0.134137 -0.8 -0.284691 -0.223368 0.932232 -0.0368158
3.87531 10.4292 39.7049 -0.267379 0 2.15312 -0.178834 0.530469 0.828626 0.359422
-2.06981 2.42488 39.3898 0.201905 0 -0.244706 -0.532071 -0.0758965 0.843291 0.365904
-0.971125 16.9621 33.7814 -0.0126383 0 -4.5 -0.811825 0.224615 -0.53897 0.999876
-3.68987 8.40306 38.8496 0.626853 0.427218 -0.8 -0.743543 0.42989 -0.51219 0.594242
0.0473125 6.54537 41.6743 0.146068 0.206635 -0.541976 0.296007 0.0343001 0.95457 0.734803
-2.4295 13.5221 37.0739 -0.0238842 0 -3.34894 -0.859393 -0.166571 -0.483423 0.378605
13.5815 15.221 45.925 -0.789147 -0.0485576 2.8 -0.0609008 -0.901785 0.427872 0.416537
14.091 22.8405 40.1468 -1.1047 0 -3.5 0.798867 -0.592774 0.102127 -0.210044
12.705 14.4958 49.327 -0.651698 0 2.8 0.128943 -0.771231 -0.623359 0.999876
5.8285 -1.22794 47.0831 -0.0714816 0 -3.2 0.0347212 0.485828 0.873365 -0.854302
11.7236 18.5858 38.5891 -2.71743 -0.479112 -1.26044 0.037245 -0.774836 -0.631065 -0.0792293
15.7465 22.7959 32.4139 -0.178199 0 4.29031 0.917067 0.312891 -0.247157 -0.115466
-1.75069 8.02862 50.6334 0.769278 0 -4.5 0.228839 -0.964178 -0.134142 -0.412526
-5.0035 8.97538 47.3699 -0.432724 0 -4.5 -0.208604 -0.836312 -0.507017 -0.253494
7.42063 18.9919 37.4757 -1.31376 0 4.5 0.784155 -0.472845 0.401893 0.269295
-1.60725 15.3585 33.563 -0.910677 0 -3.5 -0.923117 0.211095 -0.321394 -0.999885
-2.21062 8.56525 35.5386 0.14304 0 -0.8 -0.75687 0.573234 -0.313927 0.999868
-3.6125 -2.3505 36.4255 -0.0028592 0 -0.4 -0.612266 -0.662158 0.432061 -0.999871
16.0125 16.5823 45.288 -0.819529 0 2.8 0.150958 0.975204 -0.161832 0.999888
5.78406 15.763 44.3191 -0.642288 0 4.2 0.526657 -0.477945 -0.702994 0.670597
-4.98631 7.35481 39.6414 -0.32367 0 -0.8 -0.939944 0.063 -0.335465 -0.481339
3.45131 0.046625 40.1574 0.0732371 0 2.8 -0.362752 -0.0239279 0.931579 0.453591
5.36575 10.4567 40.79 -0.383998 0 3.8 -0.454619 0.642972 0.616367 -0.102128
14.6741 22.2211 29.0201 0.173446 0 2.8 0.451214 0.876842 -0.165993 0.999898
13.6171 22.9266 38.3188 -0.910271 0 -3.5 0.884744 -0.402514 -0.234971 -0.0590336
9.30606 11.7388 47.8359 -0.335729 0 -0.4 0.971763 -0.126501 -0.199183 0.403594
4.03869 12.7556 44.1196 -0.300692 0 3.61938 0.140774 -0.385312 -0.911985 0.235185
2.87094 -1.79313 44.6819 1.19409 0.246324 -3.2 -0.938258 0.339146 0.0682001 -0.999867
6.96131 10.4352 44.6278 -0.0790385 0 2.8 -0.6149 -0.788598 -0.0034428 0.2004
14.7535 24.7642 39.0747 -0.815562 -0.153268 0.782429 0.782176 -0.555458 -0.282252 0.999896
-4.67887 5.72419 41.3737 -0.227335 0 -0.8 -0.762866 -0.506374 0.402022 -0.698531
12.8796 22.6533 41.5674 -1.46005 -0.226426 -1.24186 0.859197 -0.2992 0.415041 0.549925
8.55619 19.5667 41.9286 -1.16251 0 -3.9 0.0472333 -0.439409 -0.897045 0.69235
12.4613 20.2 48.672 0.242341 0.737152 -0.4 0.363479 0.721991 -0.588738 0.999904
-5.0465 -1.4715 36.214 0.133793 0 -0.4 -0.692389 -0.185448 0.697286 -0.99989
2.34225 -5.64675 43.8215 0.10521 0 -3.2 -0.658183 0.722517 0.211577 0.999818
4.20181 -0.850062 46.5566 0.539876 0 -3.2 -0.565189 0.37232 0.736165 -0.999868
6.15119 9.78988 50.6647 0.221171 0 3.8 -0.107637 -0.572756 0.812628 0.702818
7.23588 20.5596 41.1193 -1.20448 0 4.5 0.627243 -0.566772 -0.534169 0.999877
-4.06594 8.83281 42.7884 -0.298966 -0.408255 1.75791 -0.235635 -0.78543 0.572343 0.106707
4.77981 7.76862 41.3696 -0.203749 0 2.95047 -0.16275 0.422388 0.891684 0.315442
-6.27925 10.7577 44.9255 -0.537264 0 -3.5 -0.450556 -0.884439 0.121518 0.999853
-1.46212 -0.242875 40.4167 0.0322012 0 1.8 -0.0519269 0.0324535 0.998123 -0.863262
-3.137 -0.749937 39.9567 0.118332 0 1.8 -0.626162 -0.0712317 0.776433 -0.594499
16.3464 20.6326 33.4086 -0.436652 0 2.8 0.681707 0.223241 0.696735 -0.397631
13.4829 21.4644 39.8126 -1.51758 0 -3.5 0.967208 -0.253772 -0.0103998 -0.185338
1.72794 13.4017 39.1868 -1.99654 -0.248499 -3.5 0.84322 -0.209816 0.494932 0.999857
10.4408 13.8438 43.3299 -0.816955 0 2.8 -0.797621 0.446252 -0.405782 0.708957
1.10662 -5.40712 40.208 0.376161 0 -3.2 0.721483 -0.249356 -0.645975 -0.999968
10.7392 14.3573 41.7445 -0.994149 0 2.8 -0.98166 0.180943 0.0600324 0.838582
12.4712 9.16256 43.0451 -0.45703 0 2.8 -0.289113 -0.674706 0.679106 0.531341
1.80969 8.40537 51.0713 -1.88865 -0.394125 1.8 0.0185732 -0.961821 0.273047 -0.629809
3.21394 9.32756 45.8542 -0.129051 0 3.8 0.210848 -0.697832 -0.684524 -0.398195
7.25612 7.82188 48.4613 -0.838544 -0.900128 3.8 0.204205 -0.853465 -0.479476 -0.460305
-2.58387 5.17194 42.1898 -1.27247 -0.779947 -0.8 -0.436976 -0.481933 0.759469 -0.430076
7.52525 17.2929 43.6016 -0.736554 0 -3.9 0.24279 -0.891048 -0.383518 0.999747
13.2826 23.5091 30.0769 0.633219 0 -1.29541 0.684206 0.627439 -0.371728 0.999931
16.3318 21.9445 31.0374 0.046958 0 2.8 0.685697 0.727437 0.025586 -0.332596
13.9864 23.5886 36.2581 -0.87423 0 4.31387 0.657207 -0.680489 0.324058 -0.0746549
15.0461 23.8701 41.3419 -1.35219 0 -3.5 0.699352 -0.712654 0.0550559 -0.999906
6.87213 4.74512 43.9831 -2.37622 -0.19671 -3.5 -0.2836 0.355601 0.890572 -0.934013
20.2553 18.6004 34.3155 -0.307285 0 -4.5 -0.402012 0.773253 0.490373 -0.99988
10.2305 19.1665 37.5853 -1.49591 0 4.5 -0.256218 -0.946373 0.196802 -0.154496
0.1125 -4.1915 38.1165 0.129239 0 -0.643664 -0.605703 -0.554625 -0.570539 0.99991
0.7365 -6.309 43.9315 0.127699 0 -3.2 0.0985027 0.885743 0.453603 0.999827
9.97619 14.0891 34.5487 -1.65178 0 1.27218 0.153381 0.98804 -0.015836 0.999764
0.91775 8.821 52.227 -0.176683 -0.578411 1.09328 0.0693089 -0.976094 0.206001 0.999901
15.5095 18.1435 46.3092 -0.34748 0 2.8 -0.0477599 0.611844 -0.789535 -0.999911
-3.81413 7.471 52.1726 0.418715 0 -4.5 0.365492 -0.930656 0.0171452 0.99989
-3.287 18.398 37.832 0.0535417 0 4.2 -0.912722 0.109138 -0.393736 -0.999854
12.3177 14.2667 44.8943 -1.03545 -0.802152 2.8 0.169683 -0.466808 0.867927 0.999796
1.76875 10.2997 44.394 -0.204148 0 3.8 0.245971 -0.597742 -0.763022 -0.403491
-2.72744 12.0129 37.4005 -1.64481 -0.280933 3.8 -0.787017 -0.13656 -0.601628 -0.53779
10.2354 18.6956 35.8918 -1.44203 0 4.5 0.238139 -0.957153 0.164763 -0.273767
11.8427 20.9993 44.6165 -0.658612 0 1.34906 0.976556 0.132523 0.169633 0.474063
6.28937 7.60475 41.5773 -0.295681 0 2.82188 -0.199411 0.116323 0.972987 0.512905
-2.92738 -5.59875 40.0435 -1.03278 -0.029948 -3.2 -0.825308 0.229767 -0.515823 -0.999882
11.0236 14.4657 35.8434 -1.57197 0 -0.4 -0.234055 0.935735 -0.263853 0.540033
-6.96125 7.04475 50.357 1.09408 0.602594 -4.5 -0.151376 -0.855117 -0.495843 -0.999898
-3.09013 -4.50469 43.3344 0.594021 0 -3.2 -0.572205 0.579315 0.580496 -0.999869
11.2427 14.8926 47.9175 -0.768209 0 -0.4 0.499016 -0.827371 -0.25776 0.684571
2.80725 15.0982 39.6798 -0.701135 -0.125728 0.631943 0.426114 -0.851309 0.306104 0.999855
-5.5825 2.356 35.2115 -0.1823 0 2.5 -0.962216 -0.0889219 0.25736 -0.999867
-5.287 3.26269 37.3667 0.201739 0 2.5 -0.821145 0.0388818 0.569393 -0.72632
-3.92644 17.7669 39.5835 -0.0552968 0 4.2 -0.901542 0.389301 -0.188857 0.999931
6.6845 9.5705 42.9658 -0.0289429 0 2.8 -0.690253 -0.441805 0.573025 -0.22549
9.90106 19.953 39.1982 -1.82193 0 -3.5 -0.613428 -0.776985 0.141425 0.377404
-3.77137 10.604 39.6094 0.230893 0.274668 2.38628 -0.788416 -0.000386524 -0.615142 0.463694
3.43719 8.67706 40.4684 -0.286545 -0.655592 2.18543 -0.129399 0.423466 0.896623 0.555414
8.39156 21.2684 40.1325 -1.33314 0 4.06201 -0.253691 -0.931621 -0.260237 0.999866
10.3 15.176 38.7684 -0.95515 -0.0764844 -3.5 -0.67052 0.739659 -0.0575085 -0.213707
-0.9575 -4.45244 42.6014 -0.53744 0 -3.2 0.265943 0.835585 0.480699 -0.581724
13.0131 19.5069 39.4296 -2.5548 0 -3.5 0.913783 -0.278526 -0.295674 -0.55036
-6.09013 10.0767 46.973 -0.90005 -0.699519 -3.5 -0.433894 -0.742707 -0.510022 0.999868
7.607 20.9639 38.4146 -1.29909 0 3.21162 0.292561 -0.838779 0.459193 0.999873
13.9855 14.8663 48.014 -1.864 0 2.8 -0.0812709 -0.968112 -0.23697 -0.999878
9.71769 20.0141 40.9927 -1.53611 0 -3.52842 -0.667813 -0.58248 -0.463402 0.827361
6.67438 5.81725 52.5418 0.574848 0 -3.2 -0.387252 -0.0332577 -0.921374 -0.999923
0.44075 -0.7085 39.4338 0.0694076 0 2.58739 0.166343 -0.225052 0.960043 0.612821
8.53444 7.72713 50.2771 0.293694 -0.103022 -3.2 0.0170008 -0.891809 -0.452092 0.139219
11.3815 16.4885 39.3395 -1.80256 -0.907416 -3.5 -0.845708 0.302692 -0.439495 0.321676
18.2763 19.8729 30.173 0.395779 0.545296 4.5 0.563889 0.766561 0.307269 -0.999876
1.98962 7.59338 41.4627 -0.441943 -0.0931301 1.46966 0.12685 0.400855 0.907317 -0.0620564
9.79587 12.1477 39.393 -0.774243 0 -0.964438 -0.589764 0.635481 0.498339 0.999866
9.55037 14.6049 32.6019 -1.55257 0 4.5 0.483599 0.803801 0.346463 0.393966
15.3326 15.5001 46.4147 -0.762802 -0.280989 1.71017 0.0444344 -0.927968 0.370002 0.99992
-4.604 16.109 39.4005 -1.16249 0 -3.5 -0.85415 0.126285 -0.50446 -0.99982
10.8729 4.04469 41.9053 -0.837073 -0.0296666 -3.54479 0.534735 0.357151 0.765834 0.699163
-1.23425 -6.4215 44.618 0.715309 0.0670917 -3.2 -0.051176 0.526765 0.848469 -0.999867
0.0720625 9.59069 42.256 -0.135638 0 3.8 0.719262 -0.302882 0.625239 0.115009
15.1169 13.2148 44.7759 -0.897268 0 -0.220023 -0.106231 -0.423898 0.899458 0.999868
3.69631 9.36775 52.0888 -0.267894 0 1.8 0.322794 -0.790238 0.520891 -0.999868
-2.01288 9.14275 46.6097 -1.01189 0 -3.5 -0.0449154 -0.921378 -0.386063 0.0755161
11.9192 17.5167 31.0158 -1.47967 0 3.8 -0.415068 -0.43235 0.800495 0.999812
-4.28912 0.413938 37.4675 0.659854 0.1541 -0.113708 -0.85478 -0.19783 0.479806 -0.0792039
10.8044 6.20113 41.5509 -1.02798 -0.847771 -4.5 0.306086 0.129028 0.94322 0.519189
-3.39844 7.6035 50.5034 0.0482245 0 -4.5 0.316627 -0.938999 -0.134266 -0.337307
6.788 7.642 50.409 -0.110943 -0 3.8 -0.360831 -0.839145 0.406986 -0.283796
-0.8285 -2.0475 39.5935 0.0827604 0 1.8 0.199474 -0.118463 0.972716 0.271889
-3.5625 8.4215 48.194 0.198012 0 -4.5 0.154243 -0.90478 -0.396966 -0.125902
7.60678 6.32266 42.3845 -0.691069 -0.0863976 -3.5 -0.254872 0.533006 0.806811 0.594235
10.791 16.6965 41.428 -0.91691 0.894432 -3.88012 -0.989169 -0.0573046 -0.135136 0.15385
3.03978 11.5661 38.8013 -0.0340925 0 1.9 0.32557 0.416828 0.848681 0.781809
11.5391 15.3309 37.2663 -1.94551 0 -3.5 -0.52547 0.71506 -0.461053 0.203675
2.16744 12.3735 43.7168 -0.234662 0 3.8 0.590816 -0.554595 -0.58597 0.646891
-5.529 8.767 41.586 -0.217365 -0.755077 -0.8 -0.972738 -0.218354 0.0781133 -0.353218
-2.69163 17.8657 36.1601 0.105407 0 4.2 -0.880965 0.026013 -0.472466 -0.999814
-4.48319 5.60747 39.6505 -0.000361745 0 -0.8 -0.84825 -0.528496 0.0341223 -0.305509
7.0755 17.4335 41.005 -1.03093 0 3.8 0.854927 -0.424809 -0.297719 -0.108643
9.39734 11.0014 46.0838 -0.298668 0 0.266746 0.747717 -0.329817 0.576316 0.205273
13.0127 19.537 43.3628 1.676 0 -3.9 0.932538 0.326037 0.155156 -0.184784
3.99656 15.1599 41.4817 -0.573752 0 3.8 0.496038 -0.867137 -0.0449418 0.249701
14.4629 16.2785 38.1531 -2.62533 -0.0303072 -3.5 0.0181468 0.994926 0.0989591 0.0470231
19.9389 17.0537 37.49 -2.40661 0 -3.5 0.97129 0.0917664 0.219488 -0.999935
-2.4295 -2.879 40.0895 -0.0196756 -0.259512 -1.17624 -0.902964 0.229717 0.363162 -0.225555
8.27991 3.57113 44.3924 -0.185088 -0.0723863 -0.8 0.0530239 0.328844 0.942894 -0.293747
1.462 -2.1375 39.1715 0.162723 0 2.8 -0.181612 -0.157774 0.970631 0.178844
10.5558 10.8627 48.9047 -0.47942 -0.838685 -3.10469 0.453045 -0.0178656 -0.891309 0.107105
13.8119 22.4291 34.4573 -0.863801 0 4.5 0.489166 -0.512689 0.705596 0.641324
5.96241 16.0687 36.525 -1.31311 0 4.2 0.942785 -0.103345 0.316979 0.475942
12.5972 16.7693 37.6785 -1.58364 0 -3.5 -0.110358 0.848002 -0.518376 -0.288297
12.1276 7.90487 41.8595 -0.440951 0 1.46592 -0.352628 -0.292112 0.889002 0.841144
-1.76406 8.819 42.6813 -0.192919 0 1.54241 0.169719 -0.535174 0.827517 0.227636
7.78519 11.4033 41.1833 -0.876973 0 2.8 -0.372865 0.925358 -0.0684462 0.189254
10.3413 14.6931 30.7083 -1.23474 0 4.40835 0.107995 0.637993 0.762432 0.999894
11.5025 14.379 31.6717 -1.32362 0 4.5 -0.311783 0.91003 0.273198 0.945565
10.1269 16.3175 30.3983 -1.39406 0 4.47005 0.434229 0.0106106 0.90074 0.999841
15.2395 16.993 35.0308 -1.67705 0 2.8 -0.53988 0.664043 0.517278 -0.0923474
6.85719 14.0201 37.1769 -0.972323 0 -0.4 0.256606 0.678129 0.68869 0.501327
16.4548 16.7135 43.7171 -1.01991 -0.177432 -1.11423 -0.372737 0.925455 -0.0678223 0.999849
16.73 17.6435 35.0045 -1.48998 0 -0.318233 -0.0478193 0.945463 0.322202 0.0645159
5.22194 4.85663 42.9461 1.04467 0.667042 -3.40552 -0.129919 0.240622 0.961885 -0.0497526
-0.3335 9.9935 44.9576 -0.305441 0 3.8 0.122144 -0.934342 -0.334792 0.241317
13.8202 19.5013 47.8946 0.00408192 0 -0.4 0.133844 0.757622 -0.638822 0.999914
0.938094 11.4184 42.9845 -0.166775 0 3.8 0.707305 -0.640967 -0.298128 0.324598
11.3936 22.7466 46.8169 -0.77933 0 3.44806 0.965611 -0.0436803 0.256294 0.999859
4.11587 1.95491 40.3908 -0.316956 -0.120894 1.08164 -0.385962 -0.42172 0.820479 0.999848
-1.16656 8.52353 49.084 0.120152 0 -4.5 0.0098486 -0.991101 -0.132744 0.210959
9.56206 14.3993 44.7306 -0.823598 0 4.2 -0.401743 0.284443 -0.870457 0.999831
9.09394 13.9897 38.3845 0.567089 0.70534 -3.5 -0.486147 0.604955 0.630626 -0.0998613
12.5514 16.0149 31.2063 -1.37351 0 3.8 -0.639543 0.317291 0.700223 0.868569
6.14634 16.9462 42.4862 -0.699833 0 -2.14253 0.613524 -0.788373 -0.0453333 0.523927
-3.4495 7.60825 36.6317 -1.81056 -0.563882 -0.8 -0.844896 0.490958 -0.212393 -0.999754
10.096 9.326 43.277 -1.31771 0 2.8 0.0347848 -0.783965 0.61983 0.314858
3.54275 -4.99213 41.1797 1.07605 0 -3.2 -0.907188 0.352748 -0.229302 0.999815
15.3811 16.2881 41.5298 -1.41838 0 -0.4 -0.367473 0.903392 -0.22101 0.398157
13.7387 15.7882 36.2615 -2.61156 0 -3.5 -0.39927 0.83961 -0.368291 0.174698
9.55037 17.7093 42.4564 -0.418395 0 -3.9 -0.394549 -0.683924 -0.61366 0.167736
8.53169 12.9774 43.8211 -0.742716 0 4.2 -0.265411 0.708304 -0.654112 0.531036
9.46166 17.9028 31.6488 -1.38716 0 3.10906 0.454613 -0.659396 0.598768 0.90707
-4.24478 4.80662 37.9772 0.0118142 0 2.5 -0.937641 -0.0544736 0.343309 0.0952562
-5.31862 11.7331 41.0532 0.109956 0 2.38992 -0.734425 -0.182494 -0.653694 0.999875
3.315 13.7808 38.2368 -0.68507 0 4.2 0.162533 -0.104691 0.981133 0.824405
13.5226 18.0718 46.3947 -0.595324 0 -0.237701 0.539999 0.729895 -0.419112 0.414415
5.90081 1.26462 44.1978 -0.366587 0 -0.8 -0.582982 0.38688 0.714462 -0.16185
12.7782 18.4365 32.3983 -1.58343 0 2.8 -0.35909 -0.756339 0.546814 0.705635
1.18369 8.40003 49.3107 -0.166383 0 3.8 -0.0739493 -0.991188 0.109898 0.332839
5.13194 0.0152812 45.0442 0.0471059 0 -3.2 -0.487003 0.822165 0.294743 -0.208019
-1.17362 8.3465 52.8923 0.361936 0 -4.5 0.26211 -0.963474 0.0549238 0.999885
9.80437 8.654 49.1418 0.901332 0.720702 -3.2 0.448228 -0.632198 -0.631994 -0.347262
-3.20412 -1.71119 38.2163 0.369493 0 1.8 -0.827739 -0.52937 0.186053 -0.139056
-3.763 -6.0505 41.5805 -0.103091 0 -3.2 -0.952445 0.302736 -0.0346411 -0.999872
13.1439 23.7576 43.1177 -0.997581 0 2.8 0.688278 -0.673576 0.269385 0.999883
8.022 9.2 52.0909 -0.263082 0 -2.50144 -0.802359 -0.0252238 0.596308 0.999888
10.6715 14.3642 45.9613 -0.804557 -0.26839 -0.4 0.655951 -0.586033 0.475703 0.875087
5.01263 10.9736 45.3592 -0.191231 0 3.90393 0.0753429 -0.679669 -0.72964 0.242316
-5.00425 13.8652 40.0334 -0.025309 -0.00945064 -3.5 -0.772617 -0.11246 -0.624833 -0.999743
-0.721 11.2279 33.212 0.907634 0 -3.9 -0.971921 -0.168441 -0.164309 0.999839
-3.25525 1.03094 38.9747 1.00947 0.106194 1.8 -0.601717 0.175528 0.779183 -0.231934
12.3771 14.6783 34.2733 -1.9432 0 -3.2 -0.401021 0.911783 0.0885068 0.336062
-3.40125 -6.69375 43.154 0.326349 0 -3.2 -0.809275 0.0669319 0.583604 -0.999893
6.20984 12.0451 43.6097 -0.455188 0 4.2 -0.689526 0.0810063 -0.719717 -0.156857
4.73838 11.8615 39.2447 -0.471981 0 3.8 -0.19725 0.465126 0.862989 0.0347301
12.7087 19.3215 45.3348 -0.397986 0 -3.9 0.849477 0.498229 0.173658 -0.129085
6.704 14.0113 44.4074 -0.530251 0 4.2 0.125493 0.152305 -0.980334 0.355167
12.7446 21.1156 37.9793 -1.36219 0 -3.5 0.89966 -0.338816 -0.275348 0.239442
16.3092 17.6316 40.3899 -1.37846 0 -3.5 -0.713407 0.700586 0.0151155 -0.999561
9.09419 1.42034 45.2545 -0.28461 0.142683 -3.89274 0.00440195 0.58951 0.807749 -0.205854
-5.14269 7.40034 49.1886 -0.611268 0 -4.5 -0.046869 -0.847312 -0.529024 -0.736459
7.0715 7.572 52.3115 -0.340211 0 -3.2 -0.66534 -0.359518 -0.65427 0.999873
-2.84859 15.7163 37.2469 0.180788 0 -3.5 -0.897997 -0.0607203 -0.435793 0.32491
17.4083 19.1974 32.061 -1.14694 0 3.19894 0.451601 0.713816 0.535278 0.304554
7.36766 15.0618 35.9617 -1.36128 0 4.2 0.341289 0.778682 0.526475 0.162864
4.00919 -1.25359 42.9328 0.181739 0 -3.2 -0.846203 0.50565 -0.168102 -0.106584
3.11875 7.85313 47.6885 -0.142851 0 3.8 -0.00377673 -0.970049 -0.242881 -0.434054
3.93913 14.0274 43.2333 -0.453946 0 1.8 0.555587 -0.54626 -0.626836 0.182954
6.12725 16.4305 38.0249 -1.17454 0 3.8 0.947146 -0.301483 -0.10965 0.44872
0.847 8.05244 46.7202 -0.16026 0 3.8 -0.0812696 -0.918023 -0.388109 -0.71475
6.47384 19.601 39.9782 -1.16181 0 4.11876 0.984744 -0.171316 0.0304967 0.99982
-6.27563 9.95825 42.546 -1.21386 -0.0305162 -3.5 -0.805332 -0.568003 -0.169743 -0.99987
-0.389188 2.92328 41.0604 -0.0523417 0 -0.4 -0.32423 -0.559113 0.763064 -0.0772247
-1.08775 9.49456 34.3858 0.106339 0 0.0808735 -0.905674 0.306682 -0.292748 0.99989
12.3946 16.8644 40.5313 -1.75441 0.0805123 -3.59719 0.89043 0.384533 -0.243453 0.602834
3.19788 -3.31294 43.9131 0.144884 0 -3.2 -0.979477 -0.00988211 0.201316 -0.147872
18.6332 19.1857 41.0547 -0.572236 0 -3.5 -0.626587 0.760134 -0.172002 0.999831
18.6062 17.1458 33.9766 -1.26135 -0.768078 3.94388 -0.18801 0.875534 0.445076 0.99984
8.40481 7.64859 42.2674 -0.493744 0 -0.738459 -0.0256635 -0.211335 0.977077 0.0517538
20.2336 17.5163 35.9928 -0.73366 0 -4.5 0.203839 0.963393 -0.174135 -0.999836
-2.183 10.0524 44.7186 -0.509513 0 3.8 0.110676 -0.989896 0.0886435 0.752091
10.161 18.8313 33.7999 -1.45647 0 4.5 0.290712 -0.93147 0.218748 0.564063
15.9843 24.426 34.957 -0.429924 0 4.5 0.775443 -0.498268 0.387837 -0.999865
-1.51422 -3.01328 38.6981 0.0618509 0 1.8 -0.590262 -0.769899 -0.242584 0.31578
7.67163 15.6397 33.66 -1.48565 0 4.5 0.772099 0.422116 0.475059 0.532548
1.64756 1.52147 40.383 -1.07542 -0.330778 -0.4 -0.0410742 -0.455637 0.889218 0.295488
4.2025 8.37034 50.0376 -0.0400106 -0.0235612 3.8 -0.0208689 -0.905951 0.422868 -0.11137
-5.07312 5.26294 35.7893 0.0962938 0 2.5 -0.895398 0.334752 0.293605 -0.999881
6.43131 17.1862 35.2526 -2.06065 -0.462191 4.2 0.894118 -0.106842 0.434899 0.682074
11.3398 12.4809 44.9635 -0.442562 0 2.8 0.36007 -0.207375 0.909585 0.359515
2.38238 -3.62606 38.3547 0.098299 0 2.8 -0.307296 -0.524256 0.794182 0.99989
11.8144 1.481 43.2363 0.557241 0.923332 -4.5 0.475621 0.587307 0.65487 0.999804
5.75806 7.49344 48.0897 -3.25489 -0.269136 3.8 0.0966501 -0.920459 -0.3787 -0.650007
-1.79625 9.93287 37.0369 -0.127694 -0.790974 2.85143 -0.874667 0.198012 -0.442435 0.630122
8.3755 9.998 46.533 -0.186682 0 -0.4 0.294368 -0.932279 -0.210248 -0.193531
13.7999 16.3686 33.2242 -1.45829 0 -0.671795 -0.8195 0.0843695 0.566835 0.330034
0.547 -4.371 39.183 0.164541 0 -3.2 0.664021 0.322153 0.674754 0.999777
0.924281 5.00798 41.9549 0.0421924 0 -0.4 -0.131506 -0.0333677 0.990754 -0.0359147
13.6422 15.4544 40.4028 -1.63357 0 -3.16384 0.254748 0.918327 -0.302951 0.999852
13.0061 18.2892 41.6177 0.999073 0 -3.9 0.922439 0.272427 -0.27366 0.155854
3.61956 -2.35706 41.0142 0.12994 0 -0.831611 -0.978095 0.00510192 0.208096 0.0972681
7.41056 -0.0739063 45.4087 -0.176675 -0.300994 -1.99654 -0.110731 0.544661 0.831314 0.259837
5.31706 0.44575 41.5755 0.349022 0 2.8 -0.873191 0.24088 0.423691 0.711758
9.96678 12.1766 41.4939 -1.08659 0 2.8 -0.749499 0.646021 -0.1446 0.765576
14.548 17.45 42.8875 -0.907257 0.860631 -3.9 0.42236 0.897965 -0.123577 -0.227416
5.6375 14.1695 38.385 -0.809959 0 4.2 0.655332 -0.291258 0.696929 0.0688063
10.1273 13.353 49.4319 -0.499849 0 -3.5 0.590921 -0.29575 -0.750563 0.999867
12.8175 19.534 34.2425 -1.34093 0 4.5 0.095656 -0.412915 0.905732 -0.108366
9.00106 16.5199 44.731 -0.784786 0 -3.9 -0.12997 -0.460146 -0.878278 0.999824
7.54422 12.3485 38.7954 -0.811877 0 3.8 -0.0575991 0.706562 0.705303 0.363625
3.9635 6.29025 42.633 0.0177564 0 -0.4 -0.0980123 0.403046 0.909916 -0.777277
2.23913 -5.638 41.562 0.361816 0 -3.2 0.223213 0.974426 0.0258646 0.999764
-2.94498 4.23739 39.7466 0.133402 0 -0.417444 -0.64939 -0.61989 0.440487 0.26138
1.21628 12.1535 41.142 -0.11682 0.362661 1.88656 0.932585 -0.20854 0.294611 0.363462
10.8273 16.3107 43.3871 -0.518952 0 -3.9 -0.879142 -0.250758 -0.405253 0.999834
12.7726 3.13812 41.7655 0.212613 0 -4.17811 -0.0311098 0.154893 0.987441 0.999843
7.95219 18.0602 34.8253 -1.49356 0 4.5 0.530193 -0.798099 0.286238 0.138363
4.7725 3.12188 42.4229 -0.0953723 0 -0.593629 -0.538577 -0.371449 0.756281 0.138329
12.1986 20.5257 35.347 -1.18292 0 4.5 0.836815 -0.43613 0.330956 0.297702
3 99 121 187
3 121 99 291
3 121 60 187
3 57 99 187
3 291 99 221
3 346 121 291
3 60 121 96
3 139 187 60
3 99 57 221
3 187 46 57
3 271 291 221
3 242 121 346
3 342 346 291
3 96 121 242
3 184 60 96
3 201 187 139
3 139 60 174
3 221 57 350
3 187 201 46
3 46 350 57
3 342 291 271
3 145 271 221
3 346 202 242
3 247 346 342
3 242 290 96
3 184 174 60
3 184 96 290
3 201 139 347
3 347 139 174
3 350 145 221
3 208 46 201
3 46 208 350
3 271 180 342
3 180 271 145
3 258 202 346
3 202 340 242
3 247 258 346
3 342 238 247
3 267 290 242
3 184 315 174
3 184 290 127
3 201 347 334
3 174 250 347
3 145 350 89
3 103 208 201
3 350 208 253
3 342 180 230
3 180 145 89
3 202 258 95
3 95 340 202
3 340 267 242
3 247 301 258
3 238 342 305
3 238 301 247
3 267 293 290
3 262 315 184
3 219 174 315
3 127 290 284
3 184 127 331
3 41 334 347
3 201 334 103
3 250 174 219
3 347 250 41
3 89 350 223
3 208 103 241
3 253 208 251
3 253 223 350
3 180 89 230
3 10 342 230
3 95 258 189
3 95 148 340
3 146 267 340
3 301 37 258
3 305 342 50
3 238 305 113
3 325 301 238
3 257 293 267
3 293 125 290
3 315 262 149
3 184 331 262
3 39 219 315
3 290 125 284
3 284 56 127
3 127 56 331
3 1 334 41
3 334 28 103
3 159 250 219
3 250 354 41
3 223 304 89
3 241 103 23
3 241 251 208
3 170 253 251
3 253 170 223
3 230 89 304
3 342 10 50
3 230 260 10
3 258 37 189
3 189 220 95
3 148 95 220
3 340 148 146
3 267 146 257
3 301 321 37
3 86 305 50
3 113 305 86
3 353 238 113
3 301 325 321
3 238 353 325
3 257 345 293
3 304 125 293
3 42 149 262
3 149 26 315
3 262 331 42
3 219 39 159
3 39 315 214
3 125 170 284
3 56 284 91
3 331 56 91
3 1 309 334
3 1 41 51
3 28 334 309
3 23 103 28
3 159 354 250
3 354 51 41
3 125 304 223
3 98 241 23
3 317 251 241
3 251 29 170
3 170 125 223
3 304 92 230
3 50 10 227
3 92 260 230
3 10 260 227
3 37 176 189
3 199 220 189
3 220 351 148
3 351 146 148
3 257 146 351
3 164 37 321
3 50 227 86
3 113 86 307
3 353 113 6
3 325 353 321
3 345 257 351
3 345 118 293
3 118 304 293
3 42 20 149
3 149 240 26
3 315 26 214
3 331 228 42
3 39 234 159
3 214 70 39
3 170 151 284
3 91 284 13
3 91 152 331
3 322 309 1
3 322 1 51
3 153 28 309
3 153 23 28
3 354 159 234
3 51 354 255
3 98 138 241
3 23 153 98
3 317 211 251
3 317 241 138
3 306 29 251
3 151 170 29
3 92 304 118
3 118 260 92
3 260 154 227
3 176 37 164
3 176 222 189
3 199 66 220
3 222 199 189
3 220 266 351
3 203 164 321
3 227 307 86
3 307 193 113
3 6 113 193
3 6 172 353
3 353 75 321
3 351 266 345
3 118 345 154
3 42 326 20
3 20 68 149
3 240 149 63
3 26 240 214
3 124 228 331
3 42 228 326
3 39 70 234
3 70 214 206
3 151 13 284
3 13 329 91
3 329 152 91
3 152 278 331
3 309 322 64
3 322 51 255
3 309 349 153
3 273 354 234
3 354 339 255
3 138 98 224
3 98 153 129
3 211 317 93
3 251 211 306
3 93 317 138
3 29 306 151
3 260 118 154
3 227 154 266
3 164 288 176
3 176 265 222
3 109 66 199
3 220 66 266
3 222 239 199
3 288 164 203
3 321 9 203
3 307 227 137
3 193 307 137
3 6 193 185
3 161 172 6
3 318 353 172
3 75 353 318
3 321 75 9
3 154 345 266
3 20 326 43
3 68 63 149
3 240 63 24
3 214 240 352
3 30 228 124
3 124 331 236
3 326 228 30
3 70 328 234
3 206 214 352
3 328 70 206
3 303 13 151
3 329 13 303
3 216 152 329
3 198 278 152
3 236 331 278
3 322 197 64
3 64 100 309
3 120 322 255
3 100 349 309
3 129 153 349
3 273 339 354
3 234 296 273
3 255 339 120
3 129 224 98
3 308 138 224
3 93 112 211
3 306 211 256
3 138 140 93
3 306 303 151
3 131 227 266
3 265 176 288
3 222 265 239
3 185 66 109
3 109 199 239
3 266 66 195
3 244 288 203
3 203 9 245
3 227 131 137
3 188 193 137
3 193 188 185
3 185 161 6
3 172 161 81
3 318 172 344
3 75 318 268
3 9 75 268
3 169 43 326
3 352 240 24
3 32 30 124
3 236 343 124
3 283 326 30
3 234 328 296
3 352 328 206
3 329 303 323
3 216 198 152
3 329 323 216
3 52 278 198
3 278 62 236
3 235 197 322
3 64 197 141
3 141 100 64
3 235 322 120
3 349 100 27
3 129 349 226
3 273 276 339
3 338 273 296
3 339 235 120
3 129 119 224
3 308 140 138
3 308 224 94
3 93 192 112
3 211 112 218
3 211 218 256
3 256 275 306
3 192 93 140
3 275 303 306
3 131 266 195
3 59 265 288
3 265 231 239
3 66 185 195
3 161 185 109
3 109 239 311
3 259 288 244
3 243 244 203
3 9 268 245
3 243 203 245
3 131 188 137
3 188 195 185
3 109 81 161
3 355 172 81
3 344 172 355
3 274 318 344
3 268 318 274
3 209 43 169
3 283 169 326
3 283 30 32
3 343 32 124
3 97 343 236
3 328 12 296
3 275 323 303
3 216 298 198
3 216 323 136
3 52 62 278
3 52 198 19
3 236 62 5
3 197 235 217
3 197 217 141
3 287 100 141
3 100 287 27
3 349 27 269
3 226 349 269
3 119 129 226
3 273 338 276
3 339 276 302
3 25 338 296
3 337 235 339
3 186 224 119
3 224 186 94
3 270 308 94
3 192 297 112
3 297 218 112
3 111 256 218
3 275 256 77
3 188 131 195
3 246 265 59
3 59 288 332
3 265 246 231
3 231 311 239
3 191 109 311
3 332 288 259
3 244 243 259
3 245 268 212
3 243 245 259
3 109 294 81
3 81 294 355
3 344 355 17
3 344 332 274
3 212 268 274
3 105 209 169
3 283 22 169
3 32 179 283
3 179 32 343
3 343 97 107
3 97 236 5
3 12 25 296
3 275 150 323
3 282 298 216
3 198 298 19
3 136 323 210
3 136 282 216
3 217 235 333
3 142 141 217
3 142 287 141
3 27 287 182
3 269 27 182
3 269 119 226
3 276 338 108
3 302 276 126
3 339 302 337
3 2 338 25
3 235 337 327
3 102 186 119
3 94 186 270
3 45 297 192
3 215 218 297
3 256 111 77
3 218 215 111
3 275 77 165
3 246 59 332
3 80 231 246
3 335 311 231
3 294 109 191
3 336 191 311
3 212 332 259
3 245 212 259
3 82 355 294
3 17 355 237
3 143 344 17
3 332 344 246
3 212 274 332
3 105 204 209
3 22 105 169
3 179 22 283
3 107 179 343
3 150 275 165
3 323 150 210
3 15 19 298
3 136 210 14
3 282 136 84
3 333 235 327
3 217 333 233
3 233 142 217
3 213 287 142
3 182 287 213
3 269 182 324
3 261 119 269
3 338 67 108
3 135 276 108
3 126 276 135
3 312 302 126
3 312 337 302
3 338 2 67
3 327 337 44
3 102 330 186
3 261 102 119
3 270 186 285
3 177 297 45
3 35 215 297
3 77 111 277
3 215 277 111
3 277 165 77
3 231 80 85
3 246 249 80
3 335 336 311
3 231 85 335
3 191 144 294
3 191 336 33
3 355 82 237
3 82 294 123
3 17 237 78
3 143 21 344
3 143 17 78
3 344 21 246
3 105 194 204
3 22 194 105
3 179 107 22
3 165 210 150
3 298 196 15
3 136 14 84
3 233 333 190
3 233 279 142
3 279 213 142
3 213 181 182
3 324 182 181
3 261 269 324
3 31 108 67
3 108 31 135
3 126 135 58
3 58 312 126
3 337 312 263
3 263 44 337
3 261 330 102
3 186 330 171
3 285 186 171
3 177 35 297
3 167 215 35
3 277 215 167
3 49 85 80
3 249 246 21
3 47 80 249
3 335 341 336
3 85 264 335
3 144 191 33
3 123 294 144
3 33 336 229
3 237 82 157
3 157 82 123
3 237 319 78
3 143 300 21
3 78 110 143
3 22 107 194
3 333 348 190
3 190 11 233
3 279 233 320
3 116 213 279
3 181 213 34
3 135 31 58
3 58 61 312
3 263 312 134
3 115 330 261
3 330 87 171
3 171 104 285
3 295 85 49
3 80 71 49
3 300 249 21
3 47 71 80
3 249 316 47
3 341 335 264
3 341 53 336
3 295 264 85
3 130 144 33
3 123 144 106
3 53 229 336
3 33 229 79
3 157 319 237
3 123 8 157
3 78 319 110
3 156 300 143
3 156 143 110
3 348 333 147
3 163 190 348
3 178 11 190
3 233 11 175
3 233 76 320
3 116 279 320
3 116 133 213
3 133 34 213
3 61 58 31
3 16 312 61
3 134 312 16
3 348 263 134
3 330 115 310
3 87 330 286
3 104 171 87
3 285 104 299
3 49 313 295
3 40 49 71
3 300 314 249
3 316 71 47
3 249 314 316
3 264 248 341
3 53 341 38
3 264 295 248
3 106 144 130
3 130 33 79
3 106 128 123
3 292 229 53
3 229 173 79
3 73 319 157
3 123 128 8
3 8 73 157
3 319 36 110
3 200 300 156
3 110 18 156
3 207 190 163
3 134 163 348
3 280 11 178
3 207 178 190
3 280 175 11
3 233 175 76
3 76 162 320
3 4 116 320
3 330 310 286
3 69 87 286
3 54 104 87
3 54 299 104
3 299 205 285
3 49 40 313
3 248 295 313
3 40 71 316
3 300 160 314
3 316 314 160
3 341 248 117
3 38 341 117
3 272 53 38
3 130 281 106
3 130 79 281
3 158 128 106
3 173 229 292
3 292 53 272
3 173 48 79
3 73 8 128
3 72 110 36
3 90 300 200
3 156 3 200
3 110 72 18
3 18 122 156
3 178 289 280
3 289 178 207
3 320 162 0
3 320 0 4
3 87 69 54
3 54 7 299
3 168 205 299
3 313 83 248
3 316 232 40
3 90 160 300
3 166 38 117
3 166 272 38
3 158 106 281
3 79 48 281
3 292 254 173
3 292 272 74
3 48 173 254
3 3 156 122
3 155 18 72
3 155 122 18
3 54 69 114
3 7 54 114
3 299 7 225
3 205 168 183
3 299 225 168
3 272 166 252
3 254 292 88
3 272 252 74
3 88 292 74
3 114 101 7
3 101 225 7
3 254 88 55
3 74 252 132
3 74 132 88
3 65 225 101
3 132 55 88
