ply
format ascii 1.0
comment Generated by PyMesh
element vertex 309
property float x
property float y
property float z
property float charge
property float hbond
property float hphob
property float nx
property float ny
property float nz
property float si
element face 544
property list uchar int vertex_indices
end_header
10.368 22.9165 27.9785 0.202918 0 2.8 0.0301743 0.723429 -0.689739 0.999913
1.8035 13.9035 41.162 -0.515551 0 1.8 0.730996 -0.637644 -0.243012 -0.384775
14.6427 14.885 43.9762 -0.605478 -0.0579532 2.8 0.390438 0.336023 0.857116 0.999886
14.771 10.6515 39.8865 -1.49078 -0.583373 -3.5 0.649031 -0.191994 0.736136 0.999906
15.988 24.0535 35.176 -0.358872 0 4.5 0.589168 -0.690598 0.419472 0.999924
5.368 8.92475 50.4712 0.147102 0 3.8 0.04409 -0.355196 0.933752 -0.139593
11.7935 18.7155 38.0187 -2.57857 -0.750202 -3.5 0.0776215 -0.58663 -0.806126 0.406509
-1.50025 15.125 34.3797 -1.51016 0 -3.5 -0.903503 0.22336 -0.365778 -0.999924
13.9993 23.8913 39.9087 -1.00251 -0.0661156 -3.5 0.942248 -0.334759 0.0102952 0.999875
-1.57325 7.65875 50.375 0.865439 0 -4.5 0.304332 -0.905948 -0.294348 0.999894
8.575 16.59 32.2185 -1.01935 0 4.5 0.673876 0.0783928 0.734674 0.35772
19.5088 16.3685 34.4027 -0.893224 -0.0237445 -3.32996 -0.190069 0.598422 0.778309 0.99991
7.298 1.4875 45.0515 -1.6156 -0.722399 -0.8 -0.0653044 0.656472 0.751518 0.99984
-2.19625 14.5116 35.7244 -0.708734 0 -3.5 -0.981141 -0.0777973 -0.176946 0.357881
14.6315 24.4487 36.2518 -0.504698 0 4.5 0.624031 -0.473526 0.621578 -0.999911
16.59 14.2362 37.5303 -3.29421 -0.495223 -3.5 0.833973 0.289018 0.470061 -0.395117
12.5055 20.155 38.2707 -2.29713 -0.00317726 -3.5 0.815149 -0.096826 -0.571101 0.141064
-3.19825 13.6362 39.6512 1.97081 0 3.8 -0.782153 -0.0685079 -0.619308 -0.433413
6.151 20.7738 39.0025 -0.524972 0 4.03406 0.962264 -0.247909 0.1122 -0.742017
11.257 13.857 32.661 -1.16865 0 4.5 -0.131355 0.986977 0.0928563 -0.822395
8.61575 23.2192 38.6775 -0.468637 0 -1.16487 -0.344885 -0.93545 0.077383 -0.999891
0.354125 11.0079 41.4198 1.76958 0 2.19069 0.879036 -0.081292 0.469774 -0.29387
13.931 24.0548 32.0036 0.246244 0 4.5 0.688598 0.414752 -0.594822 -0.99991
10.0898 18.9137 35.367 -1.09669 0 4.5 0.341003 -0.940004 0.0104846 0.999737
-2.679 10.3665 38.0015 -1.1727 -0.522393 3.8 -0.822588 -0.0862559 -0.562058 0.529445
3.39287 8.52238 47.649 -0.29367 0 3.8 -0.197505 -0.916033 -0.349108 0.480643
4.23625 7.3695 41.2374 -0.00928822 0 1.70061 0.0776157 0.460385 0.88432 -0.320019
8.04375 5.49075 43.057 -2.29722 -0.235913 -3.5 0.172066 0.539593 0.824156 0.649905
8.23238 15.084 32.7427 -0.930749 0 4.5 0.729958 0.456704 0.50851 -0.353555
-4.0585 5.71575 38.0793 -0.614077 -0.404332 0.974792 -0.928805 -0.116436 -0.351802 0.999892
10.5065 12.568 50.331 -0.648365 -0.149912 -1.82193 0.656745 0.326275 -0.679875 -0.999848
8.21262 11.8652 38.1204 -0.824673 0 1.27537 -0.133915 0.812344 0.567595 -0.58585
3.17987 6.37113 42.4927 -0.234083 0 -0.4 -0.00329414 0.308866 0.9511 0.999813
3.589 2.94425 40.8005 3.67699 -0.888834 -0.4 0.109901 -0.50034 0.858826 -0.573972
-3.751 7.382 37.6502 -1.20438 -0.292408 -0.7 -0.791442 0.541502 -0.283539 0.999862
1.63163 9.62575 45.4531 -0.380753 0 3.8 0.104317 -0.628588 -0.77071 0.490498
-2.6125 1.73363 39.8554 0.594046 0 -1.6 0.320987 0.545055 0.774521 -0.999922
1.6395 11.303 39.3587 0.668767 0 1.9 0.635168 0.271072 0.723244 -0.544187
13.468 23.3595 36.7555 -0.695782 0 1.33102 0.729167 -0.616139 0.297806 -0.16644
11.6383 9.13075 50.5795 0.559095 0 -3.2 0.57355 -0.296971 -0.763445 0.999861
-2.12675 13.5495 37.6437 0.1511 0 -1.38605 -0.904977 -0.11941 -0.408359 -0.348858
5.77325 1.2305 42.2002 -1.20914 0 -0.472859 -0.936991 0.0016354 0.349349 0.999881
-2.68175 8.00475 36.2427 -0.227295 -0.0858761 -0.7 -0.676588 0.729266 -0.101983 -0.999902
-5.262 10.4683 45.3223 -1.83907 0 -3.5 -0.467899 -0.861781 -0.195968 -0.999909
5.32575 17.321 36.5093 -1.09484 0 3.99837 0.950481 -0.309537 0.0278154 -0.702976
11.925 22.94 28.2495 1.50512 0 2.8 0.466525 0.649311 -0.600624 0.999845
6.909 12.5339 37.3024 -0.710757 0 3.04035 0.301512 0.736058 0.606061 -0.773426
2.5985 14.2952 38.2559 -1.13946 -0.742103 -3.5 0.49523 -0.469476 0.730985 -0.726138
11.3256 17.7546 30.416 -1.314 0 3.30787 -0.00375788 -0.534659 0.84506 -0.854858
8.8845 1.6115 44.9555 -0.107225 -0.8237 -0.8 -0.0548804 0.94706 0.31633 0.999944
4.274 10.1687 51.7205 0.442311 0 -0.4 0.39311 -0.475517 0.786987 0.999847
1.85738 12.8939 38.6179 -1.13964 -0.116666 -2.7884 0.732767 0.0358418 0.679535 -0.677082
6.50575 12.1905 39.1382 -0.639526 0 3.8 0.238857 0.828598 0.506332 0.562925
10.3115 3.06225 42.244 -1.99534 -0.392046 -3.5 0.602542 0.0869739 0.793334 -0.999925
9.637 5.58 50.9007 0.0231536 0 -3.2 -0.301114 0.135882 -0.943857 0.999917
-0.106 3.91237 41.6628 -1.05433 -0.805948 1.8 0.0769092 -0.443039 0.893197 0.655719
-4.5705 10.1761 42.5316 -0.353504 0 3.8 -0.55457 -0.78885 -0.26489 0.262871
10.6915 20.433 47.8055 -1.29525 -0.261883 -0.7 0.914926 0.280617 -0.290111 -0.999897
15.4775 21.348 28.014 0.300345 0 2.8 0.288318 0.930719 -0.225024 0.999843
11.1958 19.6863 34.4087 -1.01916 0 4.5 0.538798 -0.834884 0.112543 0.111199
10.864 18.3906 39.1766 -2.88677 -0.0598563 -3.5 -0.65617 -0.670016 -0.347158 0.258158
-2.088 13.418 34.4475 -2.22972 -0.157423 -3.5 -0.973902 -0.2261 0.0198609 0.999885
1.66075 1.2545 39.1619 -0.68213 -0.677907 0.345542 -0.144844 -0.779403 0.60955 -0.999868
9.93625 10.6385 48.832 0.628821 0 -0.66314 0.663901 0.000846274 -0.74782 0.0842509
8.37438 6.73675 42.0061 -0.833918 0 -3.5 0.0520734 0.218267 0.974499 -0.162953
8.97762 10.3191 47.7159 0.124399 0 -0.4 0.578347 -0.414959 -0.70237 0.213358
5.7455 15.8282 40.4842 -0.64418 0 3.8 0.430642 -0.882258 0.19018 0.699996
1.814 7.7 47.706 -0.358991 0 3.8 0.234851 -0.970697 -0.0509182 0.99987
8.9535 17.4435 44.2075 -0.173887 0 -3.9 0.20306 -0.877988 -0.433478 0.599797
4.44275 5.21987 42.4067 1.8474 0 -0.4 0.180737 0.0742282 0.980726 0.399048
7.86925 10.0514 43.8926 -0.363524 0 2.8 -0.589035 -0.589626 0.552611 0.358106
9.52725 17.8253 31.3104 -1.09858 0 2.8 0.368372 -0.545361 0.752916 -0.209423
0.1695 8.44675 50.9825 -0.0869025 -0.0223105 -3.46975 0.185986 -0.982149 -0.0281453 -0.999863
4.659 7.9145 48.4188 -1.2631 -0.717764 3.8 -0.245795 -0.938189 -0.243693 0.549334
6.98812 21.2259 41.226 -0.545031 0 4.5 0.735476 -0.588249 -0.336212 -0.464645
12.2765 22.45 36.4506 -0.773411 0 -2.10122 0.72449 -0.684488 0.081182 -0.999797
11.5376 21.1615 44.5105 1.48032 0 -1.12583 0.919957 0.306367 0.244578 -0.370621
11.4486 15.5402 49.0153 -1.60366 -0.281428 -0.4 0.0548368 -0.421203 -0.905307 0.999925
9.6435 14.4875 36.2062 -0.623047 0 -0.60795 -0.302416 0.952583 -0.0336203 0.447818
13.1562 6.32525 41.9451 0.51266 0 -4.5 -0.199876 0.237978 0.950482 0.999913
17.628 19.827 29.7445 2.0735 0 4.4017 0.741983 0.670032 -0.0227737 -0.999854
5.5475 11.1881 39.9893 -0.472426 0 3.8 -0.239885 0.622567 0.744893 0.519843
14.7118 23.1311 35.45 -0.582327 0 4.5 0.523814 -0.713094 0.465958 0.399561
9.10437 15.4069 48.0373 0.377051 0 -0.237205 0.911583 -0.240183 -0.33366 -0.523521
11.74 19.1144 48.0739 -0.200949 0 -0.4 0.807641 0.228304 -0.543685 0.999896
13.3888 10.487 42.3605 -0.147548 0 2.8 0.756789 -0.438168 0.485057 0.209536
10.1864 16.3099 48.5807 -0.296389 0 -1.02885 0.4159 -0.554447 -0.720844 -0.519209
16.1782 16.9886 33.0789 -1.53572 0 -0.380225 -0.0702097 0.202531 0.976756 -0.421776
3.11356 13.0273 37.5747 -0.591861 0 4.09086 0.237027 -0.0298602 0.971044 -0.99983
-2.35125 3.76725 40.0629 0.0376252 0 1.8 -0.475994 -0.689024 0.546512 -0.309046
14.4327 12.1464 43.1266 0.517785 0 2.8 0.763519 -0.464954 0.448169 0.717879
13.0463 16.4506 41.7816 -1.21266 -0.910986 2.8 0.559048 0.781832 -0.27605 -0.621354
18.336 19.0833 30.903 -1.04647 -0.223258 4.5 0.757863 0.651079 0.0417064 0.999834
12.5671 18.8469 41.3288 -1.6267 -0.213062 -3.73622 0.956497 -0.287381 0.0502497 -0.696681
9.85625 21.7014 26.8598 0.409831 0 2.8 -0.0412311 0.686097 -0.726341 -0.999928
6.49444 14.1621 36.5169 -0.793044 0 4.2 0.695183 0.398293 0.598401 -0.134872
10.3567 17.5347 44.9545 0.926343 0 -3.9 0.350835 -0.935703 0.0370916 0.256957
17.937 13.162 37.0052 -2.55668 0 -3.5 0.561877 0.491958 0.665035 -0.999907
6.58337 20.1893 42.4203 -0.27797 0 -0.935868 0.671519 -0.231088 -0.704032 -0.99988
1.01587 12.6039 40.0692 0.364101 -0.676648 -1.83462 0.92118 -0.258091 0.291232 -0.555537
6.17387 19.9154 40.3601 -0.584819 0 4.44421 0.995212 -0.0228457 -0.0950321 -0.559332
6.19688 3.17444 42.4328 -2.16854 0 -1.67071 -0.858604 0.160702 0.4868 -0.428625
5.12769 8.91025 41.1942 -0.386114 0 3.8 -0.305436 0.317496 0.897722 0.392893
16.4395 15.4594 33.8548 -0.381265 -0.438926 -3.2 -0.271924 0.784555 0.557253 -0.888492
6.624 7.357 52.404 -0.253197 0 -3.2 -0.998323 0.0298806 -0.0495854 0.999909
-3.97694 9.96737 44.4566 -0.8066 0 3.8 -0.214958 -0.967186 -0.135439 0.173171
9.3835 9.19788 48.8129 1.39288 0 -2.29021 0.462155 -0.546832 -0.698132 0.384963
-1.04537 11.6676 34.1136 -0.899578 0 -3.5 -0.98003 -0.172129 0.0995652 -0.999889
11.6667 11.4543 49.776 0.453634 0 -3.2 0.410047 0.167622 -0.896529 0.999895
2.34788 15.1668 39.4681 -0.812744 -0.0455205 -0.234388 0.722648 -0.654755 0.221532 -0.999834
-2.13738 10.2812 45.0319 -1.02157 -0.00600829 -2.89551 0.157871 -0.972832 -0.169336 -0.614518
12.16 16.8263 40.3683 -1.35022 0 -3.5 0.938205 0.337538 0.0764138 -0.999865
5.26606 16.3604 44.9975 -0.634283 0 4.2 0.135549 -0.133736 -0.981703 -0.840717
-3.58044 9.21744 41.5297 -0.171655 0 3.8 -0.963002 -0.187661 0.193419 0.0589053
9.829 14.368 49.8083 -0.178053 -0.103804 -3.16454 0.685371 -0.26509 -0.678229 -0.999829
2.078 8.469 49.1265 -0.620555 -0.0461396 3.59863 0.0738171 -0.99606 0.0491565 -0.268293
14.7431 16.4974 33.0409 -1.05333 0 2.49334 -0.214342 0.333704 0.917986 -0.158127
11.3021 16.9062 40.0346 -1.24491 -0.316955 -3.5 -0.964577 0.0491329 -0.259185 0.11965
11.6757 21.6556 26.7132 0.757332 0 -0.173006 0.240717 0.764685 -0.597756 -0.999856
8.10675 22.5602 37.3047 -0.832135 0 4.5 0.0213728 -0.564569 0.825109 -0.999904
9.77987 6.06712 41.5821 -0.589207 0 -3.5 0.310491 0.234868 0.921104 -0.58832
13.2077 19.1912 39.3312 -2.91049 -0.0345312 -3.5 0.99194 -0.0746333 -0.102395 0.365901
10.8155 13.211 43.7701 -0.350262 0 2.8 -0.307602 0.798921 0.516824 0.059041
8.34294 18.7501 32.0319 -0.47004 0 2.8 0.479716 -0.407415 0.777101 -0.999849
5.66875 12.8151 44.6958 -0.322368 0 4.2 -0.149553 -0.720378 -0.677267 0.133326
10.0076 20.8214 40.6527 -1.49591 0 -3.5 -0.85022 -0.497223 -0.172904 -0.721499
8.57837 11.0519 51.9315 -0.192561 -0.0270253 -2.7614 -0.547402 0.249606 0.798779 -0.999884
13.7779 21.1688 26.7926 0.116917 0 2.0694 0.184017 0.92362 -0.336251 -0.999843
-0.23175 5.49225 42.3395 -1.42252 0 1.8 -0.00773667 -0.0401708 0.999163 0.615154
8.07812 11.1222 39.8427 -0.821775 0 3.41132 -0.221874 0.94507 0.240032 -0.350678
1.77406 7.66825 41.4065 -0.963257 -0.199649 1.9 0.0684233 0.453248 0.888754 0.110778
-5.41625 11.9651 41.6885 -0.119363 0 -0.531313 -0.530798 -0.49837 -0.685478 0.999883
0.649813 9.304 41.1928 -0.756514 -0.0107119 1.9 0.596114 0.196126 0.778578 -0.239588
10.7032 7.35325 50.8159 0.148534 0 -3.2 0.057344 -0.453504 -0.889408 -0.999847
16.5898 20.957 29.1365 0.205731 0 2.8 0.542758 0.83709 -0.0685151 0.999783
5.882 1.09075 44.1419 -1.23956 0 -0.8 -0.858868 0.315049 0.403844 0.999881
11.5421 22.7675 44.2236 0.389793 0 2.8 0.957802 0.0205223 0.286695 0.999897
6.8965 17.7495 40.9173 -0.765315 0 3.8 0.971994 -0.20055 -0.122506 0.383234
11.5003 15.9026 38.7483 -1.5855 -0.760956 -3.5 -0.709794 0.621526 -0.331508 -0.0222423
15.2321 16.2257 38.7467 -3.04543 0 -3.5 0.487974 0.746694 0.452028 0.432232
16.1896 16.4014 37.1944 -2.42265 -0.2928 -3.5 0.585295 0.808949 0.055062 0.651939
8.23669 8.27487 42.4072 -0.563313 0 2.8 -0.179634 -0.419898 0.889617 0.160387
5.37238 1.5645 40.6594 2.45473 -0.095679 0.196258 -0.528722 -0.388093 0.754875 -0.99989
-4.74975 13.7366 40.4663 -1.28741 -0.112682 -3.5 -0.467246 -0.279008 -0.838949 0.999894
13.0561 23.5173 41.25 -0.876905 0 -3.30272 0.873125 -0.0364417 0.486133 0.999807
-1.10556 12.3066 36.2597 -0.873163 -0.685132 -3.5 -0.935006 -0.286932 -0.208408 -0.612072
11.8617 21.194 42.7733 1.52921 -0.262777 -3.5954 0.88684 0.226352 0.402839 -0.999749
16.0859 13.9286 39.3644 -3.14557 -0.72681 -3.5 0.838961 0.142569 0.525184 0.728296
13.3255 21.5479 39.5626 -1.34549 0 -3.5 0.984668 -0.128319 -0.118166 0.214656
0.787875 12.5956 41.789 0.124887 0 2.09237 0.85679 -0.513861 -0.043102 -0.554001
10.1029 18.8924 42.495 0.812424 0 -3.9 -0.204969 -0.757855 -0.61939 -0.112273
7.80162 9.08113 52.351 -0.175935 0 -3.2 -0.777074 0.304819 0.550674 0.999871
14.7855 15.9086 42.7539 -3.12919 -0.711866 2.8 0.666264 0.729255 0.155815 0.510624
7.6155 11.413 41.6338 -0.773994 0 2.8 -0.642629 0.72267 -0.254512 0.547842
6.05863 7.09575 41.2826 -0.537897 0 -0.163857 -0.174783 0.194177 0.96527 -0.646551
15.4854 14.0994 42.3724 -0.00216084 0 2.8 0.969214 -0.107259 0.221629 0.999821
13.0282 23.58 30.2291 1.59391 0 -3.3006 0.699252 0.545362 -0.462198 -0.999896
8.38081 8.02925 50.2853 -0.0295482 -0.123507 -1.51594 0.0958907 -0.828022 -0.552435 -0.145692
7.61625 12.1208 45.7666 -0.210205 0 4.2 -0.521332 -0.785553 -0.333346 -0.999855
7.2675 18.8444 33.6269 -1.00899 0 4.5 0.646933 -0.736457 0.19776 -0.794235
-1.49394 9.30688 37.2047 0.247662 -0.521985 1.76286 -0.830154 0.368275 -0.41859 -0.679871
7.6765 6.17425 51.6118 -1.56385 -0.0226014 -3.2 -0.380702 -0.41493 -0.826377 0.999869
3.56862 15.7365 40.9382 -0.473224 0 3.3562 0.594056 -0.804379 -0.0084631 -0.165201
13.4877 15.8719 32.3811 -1.02548 0 -1.89603 -0.826978 0.205847 0.523196 0.139351
13.5907 9.55225 40.5793 -1.69913 0 -0.133029 0.872746 -0.240865 0.424616 -0.999857
3.86056 13.1159 44.583 -0.238317 0 4.2 0.332917 -0.553493 -0.763422 -0.269369
18.6755 14.6336 35.4146 0.635678 -0.62461 -3.2 0.268008 0.635565 0.724036 -0.999887
7.5975 13.2465 50.9528 -0.0595704 -0.214597 -0.4 -0.376093 0.0281706 0.926154 -0.999881
12.2319 21.6006 34.9592 -0.574207 0 4.5 0.746983 -0.484607 0.455161 -0.487696
7.60887 8.93969 48.0182 -0.64217 -0.385625 2.0429 0.356876 -0.547267 -0.757059 0.391162
12.3425 14.3956 31.3316 -0.674904 0 -1.41128 -0.50003 0.788057 0.359076 -0.999812
6.74038 8.28094 50.6177 -0.308495 0 3.8 -0.684273 -0.554264 0.47388 0.0888125
-2.6655 18.124 39.8358 -0.0152047 0 4.2 -0.853813 0.284462 -0.435987 -0.999892
9.92813 11.7134 39.4883 -0.872822 0 2.8 -0.748633 0.620844 0.232595 -0.99985
9.4595 2.143 43.464 2.73205 -0.944142 -0.8 0.449026 0.50363 0.73806 -0.9998
-0.883875 10.5455 36.4381 -0.606739 0 1.9 -0.919715 0.0332415 -0.391177 -0.816917
13.3664 22.6335 34.7865 -0.542466 0 4.5 0.423398 -0.692566 0.584026 -0.999804
2.75919 4.1655 42.3402 -0.516598 0 -0.4 0.0570382 -0.4068 0.911735 0.592348
6.22288 7.55275 48.4026 -4.23609 -0.138002 3.8 0.0421004 -0.979165 -0.198656 0.913357
9.92775 7.71225 41.6394 -1.6548 -0.190234 -3.00647 0.182489 -0.32772 0.926983 -0.510765
11.3702 6.75375 41.4622 2.32622 -0.868902 -4.5 -0.00569352 0.112943 0.993585 -0.139235
6.4305 17.9212 38.9721 -0.856934 0 3.8 0.961388 -0.21225 -0.175163 0.17779
-2.51912 15.316 37.717 0.848498 0 -3.5 -0.940861 0.0874189 -0.327322 -0.0426754
-3.92525 7.358 41.768 -0.217561 0 1.8 -0.75937 0.0144967 0.650497 0.771503
-1.31337 9.2745 34.8961 0.00661881 0 -0.197915 -0.900518 0.434819 0.000282993 -0.999898
15.5685 23.7646 33.3224 -0.112802 0 4.5 0.906937 -0.383116 -0.175176 0.999866
-2.52656 8.43931 38.0841 3.92723 -0.163699 2.18739 -0.797324 0.451234 -0.400826 -0.462733
-5.84387 10.7546 43.4902 -0.785924 -0.0864231 -2.96484 -0.501801 -0.844828 -0.185639 0.999907
6.219 5.54856 42.2422 1.98612 -0.119303 -3.5 -0.366664 0.322603 0.872631 -0.102431
13.161 7.95675 40.9678 -0.0974745 0 -4.5 0.462659 -0.181366 0.867786 -0.999798
9.9635 4.618 42.3377 -1.6268 0 -3.5 0.494936 0.277273 0.823503 0.333266
4.15013 15.6903 39.0865 -0.602294 0 3.83723 0.272818 -0.778526 0.565215 -0.330741
-5.0155 9.46163 47.0891 -1.0627 -0.621048 -3.5 -0.368037 -0.85512 -0.365129 0.999885
17.7061 16.6775 33.7249 -1.11725 -0.543514 -3.2 -0.186473 0.667614 0.720777 -0.093684
14.3886 16.4993 36.9534 -2.56276 -0.843104 -3.5 0.0476331 0.90251 -0.428027 0.381855
11.9794 15.4144 36.6796 -1.72205 0 -3.5 -0.430077 0.834094 -0.345428 0.112383
2.32113 8.758 51.7993 -2.25142 -0.0959608 -0.4 0.219751 -0.939993 0.261002 0.999873
16.369 21.2995 32.0482 -1.26363 0 2.8 0.661127 0.702279 0.264038 0.524174
9.16269 13.0766 44.7646 -0.217309 0 3.41321 0.62551 0.776093 -0.0801121 0.130293
-2.592 9.69812 42.9606 -0.386595 0 3.8 -0.118942 -0.900947 0.417309 -0.106255
11.9637 23.6423 42.7745 -0.441498 0 2.8 0.903297 -0.0378517 0.427342 -0.99988
-0.61825 9.90831 42.5904 -0.23391 0 3.8 0.677766 -0.523562 0.516252 -0.0281006
-3.76925 7.90275 49.1074 -0.129942 0 -4.5 0.0569797 -0.891481 -0.44946 0.999845
-4.69925 6.22725 39.6016 -0.0387564 0 1.8 -0.997688 -0.0486865 0.0474159 0.767923
2.50431 8.7265 40.2969 -0.686262 -0.974853 1.9 0.143298 0.506735 0.850109 -0.504899
4.83425 9.15 46.9193 -0.145791 0 3.8 0.167449 -0.588525 -0.790948 0.430382
0.934 8.35863 46.3856 -0.39936 0 3.8 -0.152322 -0.814697 -0.559524 0.999774
8.91031 20.1681 42.5686 -0.113024 0 -3.9 -0.381776 -0.386294 -0.839657 -0.685792
-3.207 9.27938 46.1565 -3.90051 -0.212273 -3.5 0.0655774 -0.905755 -0.418698 0.468432
12.7054 19.3144 44.6949 3.09579 0 -3.9 0.882439 0.101139 0.459427 0.544983
-1.71162 16.5881 35.405 -0.168555 0 -3.5 -0.941559 0.162025 -0.295321 0.999884
16.2423 12.2754 38.9311 -1.77083 -0.601949 -3.5 0.767086 0.0291108 0.640883 0.999876
-2.99969 12.0954 38.4055 -2.62639 -0.727732 3.8 -0.875931 -0.00460281 -0.482414 0.710053
4.74594 11.8908 45.9461 -0.0118208 0 4.08848 0.35781 -0.531575 -0.767724 -0.517523
0.227 7.17013 41.5151 -0.790326 -0.165066 1.828 0.247174 0.134165 0.959638 -0.407218
7.17625 17.4372 32.7209 -1.3465 -0.16943 4.40181 0.737498 -0.0135013 0.675214 -0.763842
-1.76556 4.108 41.7238 -3.18044 -0.0620237 1.8 -0.335092 -0.557635 0.759445 0.817458
7.92594 13.8638 36.1351 -1.16555 0 0.0877962 -0.0575577 0.866928 0.495099 -0.112219
13.0482 16.6612 30.6637 -1.01437 0 2.8 -0.587598 -0.042128 0.808056 -0.999843
10.2545 9.5815 43.1305 -2.12433 0 2.8 0.0671679 -0.756997 0.649958 -0.42397
14.7516 22.4854 31.8593 0.0494187 0 2.8 0.81488 0.4996 -0.293889 -0.0847141
9.25178 21.8338 38.014 -1.289 0 -3.5 -0.795955 -0.363847 0.483808 -0.49809
4.95278 3.44781 41.2048 -0.252032 -0.633151 -3.5 -0.344684 -0.386706 0.855366 -0.37322
14.9052 14.7387 40.6155 -1.10186 0 2.8 0.880581 0.427427 0.204655 0.046577
9.55163 19.6045 33.0321 -1.09803 0 2.8 0.146191 -0.968605 0.20108 -0.607456
15.4899 15.0099 35.2551 -4.22074 0 -3.38434 -0.0899655 0.945126 -0.314076 -0.729492
7.01594 20.8749 37.4769 -0.473497 0 4.5 0.364266 -0.186743 0.91238 -0.468197
9.72494 16.2103 30.2507 -0.837066 0 3.99449 0.572841 -0.036949 0.818833 -0.999788
3.46228 16.2049 42.5185 -0.0786337 0 1.8 0.740652 -0.652105 0.161845 -0.587105
8.432 10.7642 45.9027 -0.301907 0 0.784407 0.0525726 -0.793595 0.606171 0.236518
3.91516 8.58034 50.0547 -0.377294 0 3.8 -0.076889 -0.898956 0.431239 0.194513
13.9836 24.6489 37.7472 -0.0623402 0 0.788172 0.874393 -0.476754 0.0902331 -0.9999
-0.390531 8.50725 48.9863 0.0720813 0 -4.5 -0.0270974 -0.98813 -0.151212 -0.0684856
13.3231 13.3236 44.1618 0.635406 0 2.8 0.307403 -0.0510268 0.95021 0.433096
6.9205 15.0131 34.051 -0.704857 -0.0376383 4.24398 0.646198 0.557072 0.521632 -0.723172
7.56625 18.5425 42.4395 -0.634014 0 -3.9 0.384335 -0.612792 -0.690488 0.102616
3.68412 1.18037 39.9131 -1.11992 0 2.8 0.0375683 -0.608324 0.792799 0.999853
-2.97584 10.3641 39.6939 -0.40446 0 3.8 -0.956342 0.00826218 -0.292132 -0.433033
5.78075 13.6939 50.6434 -0.480327 -0.107005 4.2 0.1817 0.0217481 0.983113 -0.99989
1.30672 5.35081 42.019 -0.485517 0 0.0312686 -0.0756347 -0.0242841 0.99684 -0.0624195
13.2848 15.7195 39.8472 -1.41794 0 -3.5 0.554792 0.798642 0.233189 -0.999806
11.6467 10.1213 43.6136 -0.754146 0 2.8 0.347718 -0.600201 0.720313 0.471264
6.97388 22.6428 38.8523 -0.306903 0 4.01327 0.684184 -0.728349 0.037419 -0.999841
0.82 2.7955 40.9325 -0.91607 -0.0378263 -0.4 -0.181495 -0.649754 0.738159 0.240656
11.66 16.204 41.4678 -1.38184 -0.236498 -3.5 -0.885178 0.0710223 0.4598 0.100875
9.64475 14.0148 31.7133 -0.794181 0 4.5 0.40434 0.844776 0.350517 -0.715007
5.5505 16.0525 38.4654 -0.791097 0 3.8 0.862288 -0.444143 0.243304 0.14067
7.47331 12.0515 44.0703 0.0453467 0 2.8 -0.877845 0.171803 -0.447071 0.159255
5.02187 13.4118 37.7296 -0.571771 0 4.2 0.210964 0.31911 0.923939 -0.101503
12.4761 18.5259 31.6217 -1.24252 0 2.8 -0.422025 -0.716435 0.555532 -0.572773
17.1655 15.6441 35.5846 1.3338 -0.454757 -3.2 0.24512 0.886768 0.391866 0.20756
-3.72475 8.28575 39.624 0.218958 0 1.8 -0.8827 0.427927 -0.194214 0.247653
7.11241 4.09097 43.8861 -4.03387 -0.329532 -3.5 -0.236266 0.415945 0.878162 0.520337
6.69156 18.9013 37.195 -0.855937 0 4.09122 0.762338 -0.509465 0.399106 -0.118986
3.57559 10.6403 39.0308 0.0211104 0 1.9 -0.0541993 0.539361 0.840329 -0.497562
10.2956 14.4575 39.5909 -1.2663 -0.08847 -3.5 -0.926067 0.337335 0.169132 0.363381
13.0881 22.5449 38.1423 -0.720963 0 -3.5 0.881712 -0.37591 -0.285088 -0.195484
-0.504625 1.4225 39.2007 -0.0163819 0 -1.04724 -0.1793 -0.437903 0.880961 -0.999853
11.7574 20.4581 36.9528 -1.20932 0 3.67614 0.791499 -0.546166 -0.274285 0.0748994
10.3272 14.5891 30.0773 -0.680143 0 3.92454 0.0664785 0.497627 0.86484 -0.999878
3.58891 16.5556 44.1968 0.811581 0 2.66866 0.783665 -0.420274 -0.457426 -0.999881
1.72819 12.3192 43.7234 -0.340383 0 3.3751 0.565357 -0.59118 -0.57522 -0.317976
4.49325 12.1493 51.6335 1.00855 0 -0.4 0.492744 0.0480643 0.868846 0.999876
5.14575 16.3825 41.811 -0.506228 0 3.8 0.344235 -0.894632 0.284845 0.200394
-1.39838 9.27622 47.4425 -1.10608 -0.422493 -0.35969 -0.0347938 -0.897957 -0.438706 -0.390407
18.7939 18.2206 32.6885 -2.15455 -0.2862 4.5 0.220924 0.502971 0.835591 0.999829
6.69291 9.81353 41.5165 -0.00260633 0 2.87941 -0.735855 0.258055 0.626039 0.103906
15.1036 18.4415 33.6809 0.892792 0 2.8 0.124403 -0.0744487 0.989435 0.53598
9.43944 13.4761 37.9432 3.04203 0 -3.5 -0.667728 0.648056 0.366283 -0.06646
14.419 12.2764 40.6206 -0.151008 -0.230243 0.854242 0.87319 -0.297056 0.386389 -0.399666
10.6353 13.5792 41.2617 -1.04527 -0.0227104 -2.02122 -0.849467 0.476649 0.226298 -0.22312
3.2705 14.3938 42.7995 -0.277714 0 1.8 0.814007 -0.372353 -0.44581 0.120253
-3.62762 11.6244 40.798 -0.0476752 0 3.8 -0.762866 -0.27263 -0.586266 -0.415334
12.2556 14.126 34.1626 -2.08826 0 -3.2 -0.380423 0.91468 -0.136524 -0.589679
9.01494 14.8016 45.6878 -0.386043 0 4.2 0.798338 0.136435 -0.586551 0.317935
14.5036 21.5168 33.4649 -0.376504 0 3.33933 0.663567 -0.191245 0.723259 0.0668524
-3.6625 3.614 38.9673 0.562053 0 -1.6 -0.639153 -0.417437 0.645933 -0.999881
-2.19947 8.02447 42.0704 -0.288953 0 1.8 -0.105706 -0.185417 0.976958 0.0592697
6.61228 11.0859 47.1707 -0.0461961 0 0.222743 0.0775038 -0.588649 -0.804665 -0.499133
7.23141 16.8833 44.6053 -0.552296 0 -3.9 0.185176 -0.488088 -0.852924 -0.0973754
-0.0850312 10.3233 45.1061 -0.506927 0 3.8 0.0290095 -0.882922 -0.468622 -0.223027
13.3223 20.3587 41.4999 -3.47891 -0.0993416 -3.5 0.985556 -0.00553108 0.16926 0.430885
12.8293 15.321 43.0829 -2.40725 -0.294935 2.8 -0.44869 0.397524 0.800407 0.0500581
13.7345 14.9748 34.8727 -2.78709 0 -3.2 -0.264227 0.964456 0.00293519 -0.162254
6.48816 10.8039 50.5766 0.309146 0 -0.4 -0.107575 0.0162144 0.994065 -0.404439
9.67163 13.8271 34.0003 -1.40536 0 4.5 0.142203 0.989435 0.028227 -0.428502
11.9768 17.4495 48.48 -0.0354408 0 -0.4 0.555135 -0.454164 -0.696822 0.999861
9.7435 19.5903 37.7933 -1.1778 -0.0754285 3.58216 -0.415834 -0.850333 0.322515 0.127174
5.42825 17.8779 43.6954 0.040531 0 -1.9218 0.33095 -0.89438 -0.300925 -0.66927
14.0055 22.2705 29.9435 0.286927 0 2.8 0.493336 0.800722 -0.339801 -0.334692
10.8854 18.4983 46.5457 0.430546 0 -3.9 0.954203 -0.289919 -0.0737733 -0.0852836
8.84294 16.9185 46.2669 -0.386623 0 -3.9 0.666706 -0.637558 -0.386035 -0.341186
10.611 21.9504 46.404 -0.271593 0 2.8 0.910972 0.206447 0.357084 -0.999848
3.28312 9.7905 45.9323 -0.287756 0 3.8 0.345118 -0.646523 -0.680369 0.15921
5.062 15.014 44.262 -0.299076 0 4.2 0.224729 0.0657248 -0.972202 0.164848
-2.98553 5.18253 41.2214 -0.260036 0 1.8 -0.528965 -0.405113 0.745707 0.349652
7.87206 18.7239 35.6626 -1.00425 0 4.5 0.300046 -0.952532 0.0515401 0.0520762
13.3056 17.4984 38.5965 -1.17995 -0.106356 -3.5 0.592237 0.58864 -0.550236 0.211953
9.44081 12.2635 41.7512 -1.14644 0 2.8 -0.481071 0.848544 -0.220325 -0.238199
11.8982 4.44338 41.4749 0.0955203 0 -4.5 0.159977 0.123996 0.979302 -0.999891
8.50325 21.9655 41.3758 -0.714107 0 4.5 -0.189045 -0.814939 -0.547846 -0.654059
8.61284 12.5416 47.4283 -0.0578742 0 4.2 0.961735 0.000316439 -0.273981 -0.570399
10.76 19.1267 40.8537 -1.72349 0 -3.5 -0.877439 -0.479668 -0.00443875 -0.285591
6.00025 17.3257 35.0068 -1.88445 -0.000108959 4.2 0.924278 -0.191387 0.330275 -0.376745
-3.77775 16.033 39.7234 -1.06579 -0.62273 -3.5 -0.770418 -0.0130841 -0.637405 0.999842
12.7513 19.8705 33.836 -1.01933 0 2.95667 0.0673707 -0.57663 0.814223 0.154873
12.9029 17.208 43.3418 0.383589 -0.024085 -2.02868 0.765394 -0.511619 0.390408 0.246944
-2.15125 17.5452 37.6263 0.139161 0 -2.70749 -0.955222 0.147183 -0.256686 -0.999878
2.43025 10.7688 44.6232 -0.354406 0 3.8 0.273854 -0.506243 -0.817754 0.832799
3 46 52 31
3 52 46 248
3 52 129 31
3 46 31 217
3 248 46 95
3 248 81 52
3 52 81 129
3 129 173 31
3 217 31 268
3 95 46 217
3 95 246 248
3 254 81 248
3 129 81 266
3 298 173 129
3 173 268 31
3 268 78 217
3 95 217 234
3 303 246 95
3 191 248 246
3 81 254 102
3 254 248 88
3 266 81 102
3 129 266 153
3 270 173 298
3 298 129 153
3 173 255 268
3 78 268 195
3 217 78 285
3 217 285 234
3 95 234 303
3 303 44 246
3 248 191 88
3 191 246 263
3 204 102 254
3 88 51 254
3 102 154 266
3 153 266 247
3 255 173 270
3 270 298 122
3 298 153 247
3 138 268 255
3 195 268 138
3 273 78 195
3 285 78 273
3 234 285 28
3 215 303 234
3 253 44 303
3 246 44 181
3 88 191 47
3 263 246 66
3 162 191 263
3 204 26 102
3 204 254 37
3 47 51 88
3 51 37 254
3 26 154 102
3 154 141 266
3 247 266 70
3 255 270 244
3 122 298 198
3 122 282 270
3 247 198 298
3 255 117 138
3 195 138 297
3 195 283 273
3 285 273 19
3 285 245 28
3 234 28 10
3 215 159 303
3 215 234 10
3 181 44 253
3 253 303 296
3 246 181 137
3 191 109 47
3 137 66 246
3 137 263 66
3 162 109 191
3 162 263 228
3 26 204 130
3 132 204 37
3 51 47 109
3 99 37 51
3 69 154 26
3 64 141 154
3 266 141 70
3 229 247 70
3 244 270 282
3 244 117 255
3 229 122 198
3 122 233 282
3 198 247 274
3 117 297 138
3 194 195 297
3 283 195 194
3 163 273 283
3 170 19 273
3 245 285 19
3 28 245 227
3 10 28 227
3 159 215 123
3 159 296 303
3 215 10 123
3 100 181 253
3 287 253 296
3 137 181 100
3 263 137 235
3 162 1 109
3 228 263 260
3 162 228 271
3 130 204 132
3 32 26 130
3 37 21 132
3 51 109 99
3 21 37 99
3 188 154 69
3 32 69 26
3 179 141 64
3 154 188 64
3 141 219 70
3 229 158 247
3 219 229 70
3 282 306 244
3 117 244 302
3 122 229 233
3 229 198 301
3 233 2 282
3 274 247 294
3 301 198 274
3 117 60 297
3 139 194 297
3 225 283 194
3 170 273 163
3 163 283 116
3 245 19 170
3 227 245 259
3 227 71 10
3 224 159 123
3 159 224 296
3 123 10 71
3 100 253 18
3 287 226 253
3 296 23 287
3 100 98 137
3 98 235 137
3 263 235 288
3 162 271 1
3 99 109 1
3 288 260 263
3 228 260 271
3 130 132 214
3 32 130 239
3 201 132 21
3 99 149 21
3 222 188 69
3 177 69 32
3 219 141 179
3 64 120 179
3 64 188 27
3 278 158 229
3 158 124 247
3 241 229 219
3 152 306 282
3 306 302 244
3 60 117 302
3 229 241 233
3 229 301 65
3 155 2 233
3 152 282 2
3 294 247 124
3 279 274 294
3 301 274 83
3 6 297 60
3 140 194 139
3 139 297 240
3 103 283 225
3 140 225 194
3 170 163 218
3 116 283 103
3 163 116 267
3 170 259 245
3 259 218 227
3 71 227 48
3 123 71 224
3 224 23 296
3 253 226 18
3 100 18 74
3 226 287 221
3 287 23 258
3 74 98 100
3 98 207 235
3 288 235 279
3 271 261 1
3 149 99 1
3 112 260 288
3 271 260 294
3 214 132 201
3 239 130 214
3 177 32 239
3 201 21 149
3 188 222 101
3 69 177 222
3 219 179 241
3 64 27 120
3 179 120 180
3 188 252 27
3 278 124 158
3 65 278 229
3 152 91 306
3 150 302 306
3 287 60 302
3 85 233 241
3 63 65 301
3 155 152 2
3 155 233 90
3 165 294 124
3 291 274 279
3 112 279 294
3 274 291 83
3 83 114 301
3 16 297 6
3 60 287 6
3 140 139 147
3 240 297 111
3 139 240 223
3 250 103 225
3 250 225 140
3 163 249 218
3 218 259 170
3 103 87 116
3 116 87 267
3 305 163 267
3 218 48 227
3 71 48 249
3 224 71 249
3 59 23 224
3 242 18 226
3 74 18 242
3 125 221 287
3 119 226 221
3 23 59 258
3 6 287 258
3 74 300 98
3 300 207 98
3 207 150 235
3 279 235 68
3 288 279 112
3 261 271 165
3 261 149 1
3 260 112 294
3 271 294 165
3 277 214 201
3 239 214 128
3 243 177 239
3 201 149 261
3 41 101 222
3 188 101 252
3 222 177 33
3 241 179 189
3 190 120 27
3 120 299 180
3 189 179 180
3 252 190 27
3 278 213 124
3 65 169 278
3 152 240 91
3 306 91 111
3 150 207 302
3 96 150 306
3 125 287 302
3 85 90 233
3 85 241 189
3 106 65 63
3 301 30 63
3 223 152 155
3 90 269 155
3 165 124 213
3 291 279 68
3 83 291 86
3 114 83 86
3 30 301 114
3 121 297 16
3 16 6 258
3 223 147 139
3 15 140 147
3 93 111 297
3 240 111 91
3 223 240 152
3 250 193 103
3 140 15 250
3 249 163 305
3 218 249 48
3 103 193 87
3 87 265 267
3 305 267 275
3 305 224 249
3 59 224 305
3 226 119 242
3 74 242 300
3 221 125 300
3 20 119 221
3 168 258 59
3 300 125 207
3 235 150 68
3 165 213 261
3 214 277 128
3 201 199 277
3 55 239 128
3 236 177 243
3 243 239 55
3 201 261 280
3 135 101 41
3 142 41 222
3 252 101 135
3 33 177 236
3 142 222 33
3 190 299 120
3 299 79 180
3 180 79 189
3 252 174 190
3 293 213 278
3 65 106 169
3 169 205 278
3 93 306 111
3 302 207 125
3 68 150 96
3 306 209 96
3 90 85 269
3 189 164 85
3 63 39 106
3 63 30 108
3 269 223 155
3 68 96 291
3 286 86 291
3 114 86 77
3 297 121 93
3 16 148 121
3 16 258 256
3 269 147 223
3 211 15 147
3 193 250 166
3 15 97 250
3 193 265 87
3 197 267 265
3 275 267 197
3 275 176 305
3 168 59 305
3 20 242 119
3 242 20 300
3 221 300 20
3 258 168 75
3 213 308 261
3 277 295 128
3 201 280 199
3 113 277 199
3 216 55 128
3 236 243 62
3 55 216 243
3 280 261 308
3 12 252 135
3 33 236 142
3 190 53 299
3 174 252 12
3 174 53 190
3 213 293 308
3 278 205 293
3 106 157 169
3 178 205 169
3 281 306 93
3 306 281 209
3 290 96 209
3 269 85 164
3 39 63 108
3 106 39 133
3 290 291 96
3 86 286 77
3 290 286 291
3 121 281 93
3 148 16 256
3 121 148 281
3 256 258 75
3 147 269 211
3 97 15 211
3 97 166 250
3 193 166 11
3 265 193 11
3 197 265 92
3 220 275 197
3 176 275 82
3 168 305 176
3 176 75 168
3 295 277 183
3 216 128 295
3 110 199 280
3 113 183 277
3 113 199 56
3 243 257 62
3 216 89 243
3 35 280 308
3 12 49 174
3 35 308 293
3 293 205 25
3 133 157 106
3 178 169 157
3 73 205 178
3 209 281 146
3 209 292 290
3 3 269 164
3 84 286 290
3 256 8 148
3 281 148 144
3 38 256 75
3 269 3 211
3 80 197 92
3 275 220 185
3 197 289 220
3 185 82 275
3 82 75 176
3 295 183 203
3 89 216 295
3 199 110 105
3 110 280 264
3 251 183 113
3 199 105 56
3 272 113 56
3 257 243 89
3 206 280 35
3 206 35 293
3 25 205 73
3 115 293 25
3 133 161 157
3 157 171 178
3 178 230 73
3 281 144 146
3 209 146 76
3 292 209 76
3 292 57 290
3 290 57 84
3 256 231 8
3 8 144 148
3 256 38 231
3 38 75 82
3 134 197 80
3 22 185 220
3 289 197 134
3 289 156 220
3 185 4 82
3 183 251 203
3 295 203 276
3 89 295 276
3 105 110 208
3 264 280 206
3 110 264 208
3 113 237 251
3 187 56 105
3 272 237 113
3 131 272 56
3 257 89 276
3 293 67 206
3 230 25 73
3 67 293 115
3 115 25 230
3 54 161 133
3 157 161 171
3 230 178 171
3 146 144 200
3 136 76 146
3 292 76 136
3 231 38 14
3 14 38 82
3 156 22 220
3 289 134 58
3 156 289 45
3 4 14 82
3 203 251 34
3 29 276 203
3 105 208 192
3 232 264 206
3 208 264 202
3 251 237 186
3 131 56 187
3 187 105 43
3 212 237 272
3 143 272 131
3 257 276 36
3 67 232 206
3 115 232 67
3 115 230 196
3 171 161 104
3 230 171 5
3 146 200 136
3 127 289 58
3 118 45 289
3 186 34 251
3 29 203 34
3 192 208 202
3 192 43 105
3 202 264 232
3 186 237 24
3 212 24 237
3 17 212 272
3 17 272 143
3 72 232 115
3 50 196 230
3 196 72 115
3 104 151 171
3 284 5 171
3 50 230 5
3 289 127 118
3 0 45 118
3 42 34 186
3 202 232 9
3 24 160 186
3 212 175 24
3 40 212 17
3 304 17 143
3 9 232 72
3 171 151 284
3 5 284 50
3 94 0 118
3 160 42 186
3 175 160 24
3 175 212 145
3 40 145 212
3 17 304 40
3 126 284 151
3 262 50 284
3 184 42 160
3 184 160 175
3 107 175 145
3 13 145 40
3 182 40 304
3 284 126 167
3 238 262 284
3 175 107 184
3 61 107 145
3 13 61 145
3 13 40 182
3 182 304 172
3 238 284 167
3 7 61 13
3 210 13 182
3 182 172 307
3 13 210 7
3 182 307 210
